<svg viewBox="56.20200000000003 216.23951048951048 771.8084999999998 391.4055944055944" fill="none" xmlns="http://www.w3.org/2000/svg" xmlns:xlink="http://www.w3.org/1999/xlink" overflow="visible" width="714.6374999999998px" height="362.4125874125874px"><rect id="Blush Background Color" fill="#6c4894" x="56.20200000000003" y="216.23951048951048" width="771.8084999999998" height="391.4055944055944"/><g id="Master/Scenes/Payment"><path id="Floor" fill-rule="evenodd" clip-rule="evenodd" d="M785.137 588.345H183.5C183.224 588.345 183 588.121 183 587.845C183 587.569 183.224 587.345 183.5 587.345H785.137C785.413 587.345 785.637 587.569 785.637 587.845C785.637 588.121 785.413 588.345 785.137 588.345" fill="black"/><g id="Payment" transform="translate(281 228) scale(1 1)"><g id="Payment/Dollar"><g id="Dollar"><path id="Fill 1" fill-rule="evenodd" clip-rule="evenodd" d="M227.542 172.619C228.186 175.177 230.78 176.728 233.337 176.085L393.267 135.858C395.824 135.216 397.376 132.621 396.732 130.063L391.693 110.028C391.05 107.472 388.456 105.92 385.897 106.563L225.969 146.789C223.411 147.432 221.86 150.027 222.503 152.584L227.542 172.619ZM402.14 203.087V182.428C402.14 179.791 400.001 177.653 397.364 177.653H232.454C229.817 177.653 227.679 179.791 227.679 182.428V187.785C226.921 187.765 226.158 187.754 225.392 187.754C177.55 187.754 132.069 226.537 123.808 274.378C115.546 322.219 147.63 361.001 195.472 361.001C197.577 361.001 199.677 360.923 201.77 360.774V360.776C211.248 360.776 220.23 359.789 228.675 357.956C229.548 359.095 230.907 359.842 232.454 359.842H397.364C400.001 359.842 402.14 357.704 402.14 355.067V334.408C402.14 331.771 400.001 329.634 397.364 329.634H281.104C281.166 329.571 281.225 329.508 281.285 329.445H397.364C400.001 329.445 402.14 327.307 402.14 324.671V304.012C402.14 301.375 400.001 299.237 397.364 299.237H301.444L301.526 299.05H397.364C400.001 299.05 402.14 296.912 402.14 294.274V273.616C402.14 270.979 400.001 268.841 397.364 268.841H309.266C309.271 268.778 309.276 268.716 309.281 268.653H397.364C400.001 268.653 402.14 266.515 402.14 263.879V243.22C402.14 240.583 400.001 238.445 397.364 238.445H306.243C306.224 238.383 306.206 238.319 306.187 238.258H397.364C400.001 238.258 402.14 236.12 402.14 233.482V212.824C402.14 210.186 400.001 208.049 397.364 208.049H287.25C287.183 207.986 287.113 207.924 287.046 207.861H397.364C400.001 207.861 402.14 205.723 402.14 203.087V203.087Z" fill="#FFBA00"/><path id="Fill 3" fill-rule="evenodd" clip-rule="evenodd" d="M223.393 149.183C223.991 148.184 224.942 147.477 226.071 147.194L386 106.968C386.356 106.878 386.714 106.834 387.072 106.834C387.849 106.834 388.615 107.044 389.3 107.454C390.299 108.051 391.006 109.002 391.289 110.131L396.329 130.165C396.613 131.294 396.441 132.466 395.843 133.466C395.246 134.465 394.294 135.171 393.165 135.454L233.237 175.681C232.105 175.966 230.936 175.792 229.936 175.196C228.937 174.598 228.23 173.647 227.947 172.518L222.908 152.483C222.623 151.354 222.795 150.182 223.393 149.183V149.183ZM227.138 172.721C227.477 174.066 228.319 175.199 229.509 175.911C230.325 176.398 231.238 176.648 232.164 176.648C232.589 176.648 233.017 176.596 233.44 176.49L393.369 136.263C394.713 135.925 395.846 135.083 396.558 133.893C397.27 132.704 397.475 131.307 397.137 129.962L392.098 109.928C391.759 108.583 390.917 107.451 389.727 106.739C388.539 106.029 387.144 105.821 385.797 106.16L225.868 146.385C224.523 146.724 223.39 147.566 222.678 148.756C221.966 149.946 221.761 151.341 222.099 152.686L227.138 172.721ZM397.365 207.446H287.329C273.386 194.582 254.376 187.582 232.861 187.582C232.846 187.582 232.833 187.588 232.82 187.589C231.26 187.455 229.685 187.369 228.095 187.32V182.428C228.095 180.025 230.051 178.07 232.455 178.07H397.365C399.768 178.07 401.723 180.025 401.723 182.428V203.087C401.723 205.491 399.768 207.446 397.365 207.446V207.446ZM401.723 212.825V233.483C401.723 235.886 399.768 237.842 397.365 237.842H306.601C303.807 229.025 299.382 220.886 293.378 213.757C291.81 211.895 290.138 210.141 288.398 208.465H397.365C399.768 208.465 401.723 210.421 401.723 212.825V212.825ZM401.723 243.22V263.879C401.723 266.283 399.768 268.238 397.365 268.238H309.811C310.671 257.961 309.684 248.051 306.919 238.862H397.365C399.768 238.862 401.723 240.817 401.723 243.22V243.22ZM401.723 273.617V294.275C401.723 296.678 399.768 298.634 397.365 298.634H302.216C305.232 291.461 307.471 283.898 308.824 276.067C309.218 273.781 309.496 271.514 309.71 269.258H397.365C399.768 269.258 401.723 271.213 401.723 273.617V273.617ZM401.723 304.012V324.671C401.723 327.075 399.768 329.03 397.365 329.03H282.36C290.486 320.511 297.048 310.558 301.773 299.654H397.365C399.768 299.654 401.723 301.609 401.723 304.012V304.012ZM401.723 334.409V355.068C401.723 357.471 399.768 359.426 397.365 359.426H232.455C231.324 359.426 230.302 358.983 229.53 358.271C246.355 354.507 261.501 347.247 274.182 336.704C276.702 334.61 279.096 332.38 281.383 330.05H397.365C399.768 330.05 401.723 332.005 401.723 334.409V334.409ZM212.916 359.802C254.107 351.815 290.274 316.587 297.548 274.463C301.611 250.937 296.185 228.879 282.268 212.353C272.298 200.513 258.804 192.586 243.261 189.171C263.347 191.408 280.619 200.158 292.613 214.401C306.443 230.824 311.85 252.663 307.837 275.897C303.738 299.634 291.559 320.956 273.543 335.935C256.992 349.697 236.202 357.842 212.916 359.802V359.802ZM201.631 360.261C201.542 360.251 201.446 360.252 201.359 360.239L201.351 360.283C199.396 360.412 197.437 360.502 195.472 360.502C172.724 360.502 152.797 351.715 139.361 335.76C125.637 319.463 120.288 297.695 124.301 274.463C132.51 226.927 177.859 188.254 225.391 188.254C248.139 188.254 268.067 197.041 281.503 212.997C295.227 229.293 300.575 251.062 296.562 274.293C288.708 319.771 246.861 357.11 201.631 360.261V360.261ZM402.555 203.087V182.428C402.555 179.566 400.227 177.238 397.365 177.238H232.455C229.592 177.238 227.263 179.566 227.263 182.428V187.3C226.638 187.287 226.02 187.254 225.391 187.254C177.394 187.254 131.603 226.3 123.315 274.293C119.252 297.82 124.679 319.878 138.596 336.404C152.225 352.589 172.424 361.502 195.472 361.502C197.576 361.502 199.673 361.423 201.765 361.276C201.767 361.276 201.768 361.277 201.77 361.277C211.07 361.277 220.031 360.322 228.573 358.485C229.523 359.567 230.905 360.258 232.455 360.258H397.365C400.227 360.258 402.555 357.93 402.555 355.068V334.409C402.555 332.16 401.109 330.259 399.105 329.54C401.109 328.821 402.555 326.92 402.555 324.671V304.012C402.555 301.763 401.11 299.864 399.106 299.144C401.11 298.424 402.555 296.524 402.555 294.275V273.617C402.555 271.368 401.109 269.467 399.105 268.747C401.109 268.029 402.555 266.128 402.555 263.879V243.22C402.555 240.971 401.11 239.072 399.106 238.352C401.11 237.632 402.555 235.732 402.555 233.483V212.825C402.555 210.576 401.11 208.675 399.106 207.955C401.11 207.236 402.555 205.336 402.555 203.087V203.087Z" fill="black"/><path id="Fill 6" fill-rule="evenodd" clip-rule="evenodd" d="M195.436 322.173H207.911L209.994 310.114L210.341 310.054C224.129 307.686 233.906 299.196 235.857 287.901C237.744 276.977 233.064 270.61 219.708 265.926C211.124 262.745 206.279 260.215 206.887 256.683C207.248 254.601 209.087 251.109 217.373 251.109C225.712 251.109 230.924 253.48 234.039 254.897L234.338 255.032L240.514 240.125C237.344 238.707 232.235 236.911 223.797 236.604L223.226 236.582L224.953 226.583H212.478L210.591 237.507L210.253 237.573C196.864 240.184 187.744 248.266 185.857 259.194C184.091 269.415 189.619 276.082 203.779 280.812C211.417 283.274 215.693 285.567 214.928 289.998C214.276 293.767 210.021 295.928 203.253 295.928C196.593 295.928 189.954 294.239 183.51 290.908L177.228 306.382C180.883 308.354 188.02 310.707 196.773 311.146L197.336 311.174L195.436 322.173ZM208.752 323.173H194.249L196.16 312.112C188.722 311.664 181 309.693 176.35 307.039L175.97 306.822L182.999 289.509L183.489 289.769C189.94 293.192 196.589 294.928 203.253 294.928C209.486 294.928 213.382 293.069 213.942 289.828C214.508 286.548 211.767 284.438 203.467 281.762C193.55 278.449 182.479 272.873 184.871 259.025C186.816 247.764 196.094 239.422 209.723 236.658L211.636 225.583H226.14L224.406 235.627C231.007 235.923 236.412 237.131 241.371 239.415L241.808 239.616L234.869 256.365L233.624 255.807C230.584 254.424 225.496 252.109 217.373 252.109C211.776 252.109 208.402 253.793 207.874 256.853C207.445 259.334 210.745 261.538 220.047 264.985C233.962 269.865 238.831 276.555 236.843 288.07C234.833 299.7 224.892 308.453 210.859 310.979L208.752 323.173Z" fill="black"/></g></g></g><g id="Plant" transform="matrix(-1 0 0 1 867 220) scale(0.9895104895104895 1.002717391304348)"><g id="Plant/Big Leaves"><g id="Big Leaves"><path id="Leaves" fill-rule="evenodd" clip-rule="evenodd" d="M130.586 328.98C130.581 329.09 130.577 329.2 130.572 329.309C130.577 329.2 130.581 329.09 130.586 328.98V328.98ZM130.626 327.519C130.624 327.647 130.621 327.775 130.619 327.903C130.621 327.776 130.624 327.647 130.626 327.519V327.519ZM130.504 330.506C130.5 330.566 130.498 330.626 130.493 330.685C130.498 330.626 130.5 330.566 130.504 330.506V330.506ZM109.823 289.46C109.588 289.317 109.353 289.172 109.113 289.03C109.353 289.172 109.588 289.317 109.823 289.46V289.46ZM111.656 290.628C111.425 290.475 111.193 290.323 110.959 290.17C111.193 290.323 111.425 290.475 111.656 290.628V290.628ZM113.367 291.821C113.154 291.666 112.936 291.512 112.718 291.359C112.936 291.512 113.154 291.666 113.367 291.821V291.821ZM114.97 293.039C114.792 292.897 114.605 292.757 114.423 292.617C114.605 292.757 114.792 292.897 114.97 293.039V293.039ZM116.473 294.285C116.395 294.217 116.311 294.151 116.232 294.084C116.311 294.151 116.395 294.217 116.473 294.285V294.285ZM118.278 295.952C118.144 295.822 118.017 295.69 117.881 295.562C118.017 295.69 118.144 295.822 118.278 295.952V295.952ZM107.811 288.29C107.597 288.171 107.39 288.051 107.174 287.934C107.39 288.051 107.597 288.171 107.811 288.29V288.29ZM120.905 298.746C120.753 298.567 120.598 298.389 120.441 298.211C120.598 298.389 120.753 298.567 120.905 298.746V298.746ZM122.034 300.124C121.894 299.944 121.751 299.766 121.607 299.588C121.751 299.766 121.894 299.944 122.034 300.124V300.124ZM123.074 301.513C122.955 301.346 122.83 301.181 122.708 301.015C122.83 301.181 122.955 301.346 123.074 301.513V301.513ZM124.031 302.915C123.961 302.807 123.884 302.701 123.814 302.593C123.884 302.701 123.961 302.807 124.031 302.915V302.915ZM125.104 304.677C125.039 304.565 124.978 304.452 124.913 304.339C124.978 304.452 125.039 304.565 125.104 304.677V304.677ZM125.981 306.289C125.894 306.119 125.808 305.948 125.718 305.779C125.808 305.948 125.894 306.119 125.981 306.289V306.289ZM126.716 307.792C126.631 307.606 126.545 307.421 126.456 307.237C126.545 307.421 126.631 307.606 126.716 307.792V307.792ZM127.365 309.273C127.288 309.087 127.209 308.902 127.129 308.716C127.209 308.902 127.288 309.087 127.365 309.273V309.273ZM127.941 310.748C127.879 310.578 127.812 310.407 127.747 310.237C127.812 310.407 127.879 310.577 127.941 310.748V310.748ZM128.454 312.223C128.416 312.104 128.372 311.985 128.332 311.865C128.372 311.985 128.416 312.104 128.454 312.223V312.223ZM128.947 313.861C128.934 313.816 128.924 313.77 128.911 313.725C128.924 313.77 128.934 313.816 128.947 313.861V313.861ZM129.404 315.655C129.37 315.507 129.338 315.359 129.301 315.21C129.338 315.359 129.37 315.507 129.404 315.655V315.655ZM129.739 317.21C129.706 317.042 129.674 316.874 129.638 316.705C129.674 316.874 129.706 317.042 129.739 317.21V317.21ZM130.008 318.715C129.981 318.546 129.953 318.377 129.924 318.209C129.953 318.377 129.981 318.546 130.008 318.715V318.715ZM130.224 320.196C130.205 320.044 130.182 319.892 130.162 319.741C130.182 319.892 130.205 320.044 130.224 320.196V320.196ZM130.391 321.663C130.382 321.56 130.369 321.458 130.358 321.356C130.369 321.458 130.382 321.56 130.391 321.663V321.663ZM130.601 324.899C130.597 324.808 130.596 324.718 130.592 324.627C130.596 324.718 130.597 324.808 130.601 324.899V324.899ZM119.674 297.372C119.517 297.205 119.363 297.037 119.202 296.872C119.363 297.037 119.516 297.205 119.674 297.372V297.372ZM130.631 326.451C130.63 326.325 130.63 326.199 130.629 326.072C130.63 326.199 130.63 326.325 130.631 326.451V326.451ZM180.423 256.357C180.359 249.907 173.386 245.845 167.809 249.085C157.198 255.251 150.36 263.618 146.116 272.861C146.117 272.86 146.117 272.858 146.117 272.857C146.631 233.379 137.679 185.236 99.5641 151.308C90.2581 143.024 75.5281 149.055 74.7761 161.492C73.2851 186.146 76.9921 228.495 104.599 286.663C104.779 286.73 104.959 286.795 105.134 286.882C101.086 284.893 96.3871 287.938 96.6451 292.443C97.3241 304.297 102.048 326.668 125.314 352.129C125.314 352.129 129 344.186 130.235 333.476C132.056 336.422 133.929 339.396 135.867 342.404C135.867 342.404 138.557 333.963 141.185 320.307C143.265 335.113 147.35 345.966 147.35 345.966C176.826 313.71 180.613 275.678 180.423 256.357V256.357Z" fill="#409B81"/><path id="Fill 3" fill-rule="evenodd" clip-rule="evenodd" d="M140.558 307.664C139.906 288.808 144.148 263.412 168.06 249.518C169.287 248.806 170.637 248.449 171.989 248.449C173.324 248.449 174.66 248.796 175.881 249.491C178.383 250.915 179.894 253.483 179.922 256.362C180.115 275.757 176.191 312.742 148.142 344.323C149.472 319.065 155.369 294.542 165.724 271.28C165.836 271.028 165.723 270.732 165.47 270.62C165.221 270.508 164.922 270.621 164.81 270.874C154.454 294.138 148.54 318.657 147.167 343.91C145.495 338.87 141.133 324.278 140.558 307.664M136.187 339.534C133.839 303.229 126.761 267.455 115.036 232.857L94.627 172.645C94.539 172.384 94.255 172.246 93.994 172.332C93.732 172.421 93.591 172.705 93.68 172.966L114.088 233.178C125.885 267.986 132.974 303.988 135.255 340.523C133.779 338.212 132.249 335.775 130.679 333.226C132.294 318.278 129.167 298.133 105.356 286.434C105.289 286.401 105.221 286.38 105.154 286.351C87.609 249.29 72.691 204.268 75.275 161.522C75.61 155.977 79 151.22 84.122 149.104C85.918 148.363 87.792 148.001 89.648 148.001C93.112 148.001 96.515 149.264 99.232 151.682C138.225 186.392 145.986 236.333 145.63 272.117C145.628 272.374 145.622 272.627 145.618 272.882C140.36 284.462 139.191 297.113 139.56 307.724C139.711 312.07 140.121 316.276 140.673 320.216C138.933 329.261 137.172 336.022 136.187 339.534M125.763 349.704C124.498 331.991 118.992 314.819 109.642 299.624C109.496 299.388 109.186 299.314 108.954 299.46C108.719 299.604 108.646 299.912 108.79 300.147C118.245 315.511 123.725 332.914 124.828 350.847C114.728 339.583 98.596 317.815 97.144 292.415C97.035 290.5 97.92 288.727 99.514 287.67C100.421 287.067 101.453 286.763 102.495 286.763C103.315 286.763 104.14 286.951 104.914 287.332C121.758 295.607 130.243 308.968 130.133 327.042C130.073 337.04 127.253 345.776 125.763 349.704M180.922 256.352C180.89 253.113 179.191 250.224 176.376 248.622C173.605 247.046 170.308 247.056 167.558 248.653C157.537 254.476 150.915 262.27 146.631 270.761C146.781 234.866 138.678 185.456 99.896 150.935C95.436 146.965 89.246 145.907 83.741 148.181C78.262 150.442 74.635 155.531 74.277 161.462C73.022 182.225 76.047 206.383 83.026 231.324C87.964 248.972 94.881 267.203 103.686 285.878C102.063 285.568 100.383 285.892 98.96 286.836C97.068 288.092 96.016 290.198 96.146 292.472C97.655 318.877 114.8 341.356 124.911 352.43C124.992 354.146 125.047 355.866 125.047 357.591V366.617C125.047 366.893 125.271 367.117 125.547 367.117C125.824 367.117 126.047 366.893 126.047 366.617V357.591C126.047 355.741 125.985 353.896 125.892 352.056C126.514 350.616 129.292 343.803 130.487 334.816C132.084 337.39 133.704 339.967 135.369 342.552C135.827 350.515 136.069 358.5 136.069 366.505C136.069 366.781 136.292 367.005 136.569 367.005C136.845 367.005 137.069 366.781 137.069 366.505C137.069 358.477 136.826 350.468 136.367 342.483C136.582 341.791 138.794 334.585 141.116 323.14C143.275 336.436 146.833 346.014 146.882 346.143C146.917 346.235 146.981 346.307 147.058 346.363C146.93 349.359 146.85 352.362 146.85 355.377V366.505C146.85 366.781 147.074 367.005 147.35 367.005C147.626 367.005 147.85 366.781 147.85 366.505V355.377C147.85 352.206 147.935 349.049 148.077 345.899C177.091 313.87 181.118 276.079 180.922 256.352" fill="black"/></g></g></g><g id="Master/Character/Sitting" transform="matrix(-1 0 0 1 470.402 123) scale(1 1)"><g id="Master/Character/Sitting"><g id="Lower Body Sitting" transform="translate(17 227) scale(1 1)"><g id="Lower Body Sitting/Cross Leg"><g id="Cross Leg"><path id="Chair" fill-rule="evenodd" clip-rule="evenodd" d="M247.74 128.012L256.453 85.3704C257.118 82.1174 254.632 79.0724 251.311 79.0724H151.045C147.725 79.0724 145.239 82.1174 145.904 85.3704L154.617 128.012H139.493C139.493 136.154 146.093 142.753 154.234 142.753H248.123C256.264 142.753 262.864 136.154 262.864 128.012H247.74Z" fill="#EFF2F7"/><path id="Fill 3" fill-rule="evenodd" clip-rule="evenodd" d="M140.002 128.512C140.266 136.134 146.549 142.253 154.234 142.253H248.123C255.808 142.253 262.091 136.134 262.355 128.512H247.74C247.59 128.512 247.448 128.445 247.353 128.328C247.258 128.212 247.22 128.059 247.25 127.912L255.963 85.2704C256.25 83.8674 255.895 82.4274 254.99 81.3184C254.084 80.2084 252.743 79.5724 251.312 79.5724H151.046C149.614 79.5724 148.273 80.2084 147.368 81.3184C146.462 82.4274 146.107 83.8674 146.394 85.2704L155.107 127.912C155.137 128.059 155.099 128.212 155.005 128.328C154.91 128.445 154.767 128.512 154.617 128.512H140.002ZM248.123 143.253H154.234C145.831 143.253 138.993 136.416 138.993 128.012C138.993 127.736 139.217 127.512 139.493 127.512H154.005L145.414 85.4704C145.067 83.7724 145.497 82.0284 146.593 80.6854C147.689 79.3424 149.312 78.5724 151.046 78.5724H251.312C253.045 78.5724 254.668 79.3424 255.764 80.6854C256.86 82.0284 257.29 83.7724 256.943 85.4704L248.353 127.512H262.864C263.14 127.512 263.364 127.736 263.364 128.012C263.364 136.416 256.527 143.253 248.123 143.253V143.253Z" fill="black"/><path id="Fill 7" fill-rule="evenodd" clip-rule="evenodd" d="M247.74 128.512H154.617C154.341 128.512 154.117 128.288 154.117 128.012C154.117 127.736 154.341 127.512 154.617 127.512H247.74C248.016 127.512 248.24 127.736 248.24 128.012C248.24 128.288 248.016 128.512 247.74 128.512" fill="black"/><path id="Chair Legs" fill-rule="evenodd" clip-rule="evenodd" d="M245.756 142.754H233.562L201.863 182.353L171.375 141.814L159.187 141.445L195.455 189.67L195.722 190.024L162.736 237.477H169.929L201.628 197.878L232.116 238.417L239.304 238.785L207.77 190.206L245.756 142.754Z" fill="#F5A95E"/><path id="Fill 11" fill-rule="evenodd" clip-rule="evenodd" d="M232.375 237.929L238.351 238.236L207.35 190.478C207.233 190.297 207.244 190.062 207.379 189.893L244.715 143.254H233.802L202.253 182.665C202.157 182.785 202.019 182.865 201.855 182.852C201.701 182.85 201.556 182.776 201.463 182.653L171.12 142.306L160.212 141.976L196.121 189.723C196.251 189.896 196.255 190.132 196.132 190.309L163.692 236.976H169.689L201.238 197.565C201.334 197.445 201.479 197.376 201.636 197.378C201.79 197.38 201.935 197.454 202.028 197.577L232.375 237.929ZM239.304 239.285C239.296 239.285 239.287 239.285 239.279 239.284L232.09 238.916C231.942 238.908 231.805 238.835 231.716 238.717L201.616 198.693L170.32 237.789C170.225 237.908 170.081 237.976 169.929 237.976H162.736C162.55 237.976 162.379 237.873 162.292 237.708C162.206 237.543 162.219 237.344 162.325 237.191L195.105 190.035L195.056 189.971L158.788 141.745C158.672 141.592 158.655 141.386 158.743 141.215C158.832 141.045 159 140.942 159.202 140.945L171.39 141.314C171.542 141.319 171.684 141.392 171.775 141.513L201.875 181.537L233.172 142.441C233.267 142.323 233.41 142.254 233.562 142.254H245.756C245.948 142.254 246.123 142.364 246.207 142.537C246.29 142.71 246.266 142.916 246.146 143.066L208.385 190.237L239.724 238.512C239.826 238.67 239.831 238.872 239.737 239.035C239.648 239.19 239.482 239.285 239.304 239.285V239.285Z" fill="black"/><path id="Fill 13" fill-rule="evenodd" clip-rule="evenodd" d="M207.769 190.706C207.617 190.706 207.467 190.637 207.369 190.506L200.75 181.706C200.584 181.485 200.628 181.172 200.849 181.006C201.07 180.84 201.384 180.884 201.549 181.105L208.168 189.906C208.334 190.126 208.29 190.439 208.069 190.605C207.979 190.673 207.873 190.706 207.769 190.706" fill="black"/><path id="Fill 15" fill-rule="evenodd" clip-rule="evenodd" d="M201.628 198.378C201.476 198.378 201.326 198.309 201.228 198.178L195.055 189.97C194.889 189.75 194.933 189.437 195.154 189.271C195.375 189.105 195.688 189.149 195.854 189.37L202.027 197.578C202.193 197.798 202.149 198.111 201.928 198.277C201.838 198.345 201.732 198.378 201.628 198.378" fill="black"/><path id="Shoes" fill-rule="evenodd" clip-rule="evenodd" d="M87.7185 218.173C84.9735 220.644 81.5885 222.293 77.9505 222.933L70.8565 224.179C63.8745 225.407 58.0855 230.282 55.6875 236.954L55.4995 237.477H129.826V218.035H87.8725L87.7185 218.173ZM212.564 148.056L181.858 176.643L181.84 176.849C181.514 180.528 180.16 184.042 177.933 186.988L173.591 192.735C169.317 198.391 168.401 205.904 171.193 212.421L171.412 212.931L227.661 160.564L212.564 148.056Z" fill="#4B69FD"/><path id="Fill 19" fill-rule="evenodd" clip-rule="evenodd" d="M182.338 176.878L182.337 176.893C182.003 180.67 180.618 184.265 178.331 187.29L173.989 193.036C169.864 198.494 168.951 205.777 171.591 212.08L226.903 160.586L212.582 148.721L182.338 176.878ZM171.411 213.431C171.376 213.431 171.342 213.428 171.307 213.42C171.148 213.387 171.015 213.277 170.951 213.128L170.733 212.617C167.877 205.952 168.819 198.218 173.191 192.434L177.534 186.687C179.706 183.812 181.023 180.395 181.341 176.805L181.359 176.6C181.369 176.476 181.426 176.361 181.516 176.277L212.222 147.69C212.407 147.519 212.689 147.511 212.882 147.67L227.979 160.178C228.09 160.27 228.156 160.405 228.16 160.549C228.164 160.693 228.106 160.832 228.001 160.929L171.751 213.297C171.658 213.384 171.536 213.431 171.411 213.431V213.431ZM56.2114 236.977H129.326V218.535L88.0534 218.545C85.2354 221.081 81.7724 222.769 78.0374 223.425L70.9434 224.672C64.2054 225.856 58.5744 230.565 56.2114 236.977V236.977ZM129.826 237.977H55.5004C55.3374 237.977 55.1844 237.898 55.0914 237.764C54.9974 237.631 54.9744 237.461 55.0294 237.308L55.2174 236.785C57.6694 229.961 63.6284 224.942 70.7704 223.687L77.8634 222.44C81.4134 221.816 84.7054 220.212 87.3844 217.801V217.801L87.5384 217.663C87.6304 217.58 87.7494 217.535 87.8724 217.535H129.826C130.102 217.535 130.326 217.758 130.326 218.035V237.477C130.326 237.753 130.102 237.977 129.826 237.977V237.977Z" fill="black"/><path id="Fill 21" fill-rule="evenodd" clip-rule="evenodd" d="M55.688 236.954L55.501 237.476H129.826V233.001H57.642C56.856 234.229 56.193 235.549 55.688 236.954V236.954ZM224.08 157.782L169.929 208.196C170.191 209.63 170.605 211.048 171.193 212.421L171.412 212.931L227.661 160.563L224.08 157.782Z" fill="#EFF2F7"/><path id="Fill 23" fill-rule="evenodd" clip-rule="evenodd" d="M170.471 208.374C170.725 209.665 171.101 210.91 171.591 212.081L226.889 160.598L224.109 158.438L170.471 208.374ZM171.411 213.431C171.377 213.431 171.342 213.428 171.308 213.42C171.148 213.387 171.016 213.278 170.951 213.128L170.732 212.618C170.149 211.257 169.713 209.799 169.437 208.286C169.406 208.119 169.463 207.947 169.587 207.831L223.739 157.416C223.918 157.249 224.192 157.237 224.386 157.387L227.967 160.168C228.083 160.258 228.153 160.395 228.16 160.541C228.166 160.687 228.108 160.83 228.001 160.929L171.752 213.297C171.658 213.384 171.536 213.431 171.411 213.431V213.431ZM56.2114 236.977H129.325V233.501H57.9174C57.2234 234.619 56.6504 235.786 56.2114 236.977V236.977ZM129.825 237.977H55.5004C55.3374 237.977 55.1854 237.897 55.0914 237.764C54.9974 237.631 54.9744 237.461 55.0294 237.308L55.2174 236.785V236.785C55.7174 235.392 56.3914 234.028 57.2204 232.732C57.3124 232.588 57.4704 232.501 57.6414 232.501H129.825C130.102 232.501 130.325 232.725 130.325 233.001V237.477C130.325 237.753 130.102 237.977 129.825 237.977V237.977Z" fill="black"/><path id="Skin" fill-rule="evenodd" clip-rule="evenodd" d="M118.436 165.296V165.296C109.941 165.296 102.437 170.833 99.933 178.95L87.873 218.034H129.826L137.186 189.496C140.347 177.24 131.093 165.296 118.436 165.296V165.296ZM181.865 125.952C174.339 120.532 164.034 121.18 157.246 127.5C148.688 135.467 149.043 149.129 158.002 156.642L181.858 176.643L212.564 148.056L181.865 125.952Z" fill="#fbefe3"/><path id="Fill 27" fill-rule="evenodd" clip-rule="evenodd" d="M170.512 122.8C165.842 122.8 161.191 124.51 157.586 127.866C153.612 131.566 151.414 136.801 151.555 142.229C151.696 147.656 154.163 152.771 158.324 156.259L181.84 175.976L211.777 148.106L181.573 126.358C178.262 123.974 174.38 122.8 170.512 122.8V122.8ZM181.858 177.143C181.744 177.143 181.63 177.105 181.536 177.027L157.681 157.026C153.301 153.353 150.704 147.969 150.555 142.255C150.407 136.54 152.721 131.029 156.905 127.135C163.844 120.674 174.464 120.007 182.158 125.547L212.856 147.651C212.978 147.738 213.053 147.876 213.063 148.025C213.072 148.175 213.014 148.32 212.905 148.422L182.198 177.009C182.103 177.098 181.98 177.143 181.858 177.143V177.143ZM88.5499 217.535H129.439L136.702 189.371C138.17 183.681 136.947 177.753 133.348 173.107C129.748 168.461 124.313 165.797 118.436 165.797C110.11 165.797 102.866 171.142 100.41 179.098L88.5499 217.535ZM129.826 218.535H87.8729C87.7139 218.535 87.5639 218.46 87.4699 218.332C87.3759 218.204 87.3479 218.039 87.3949 217.887L99.4549 178.803C102.04 170.425 109.668 164.797 118.436 164.797V164.797C124.625 164.797 130.348 167.602 134.138 172.494C137.929 177.386 139.216 183.629 137.671 189.621L130.31 218.16C130.253 218.381 130.054 218.535 129.826 218.535V218.535Z" fill="black"/><path id="Pants" fill-rule="evenodd" clip-rule="evenodd" d="M236.753 69.5H156.79L155.88 84.795L110.376 76.129C96.7245 73.529 83.5925 82.622 81.2225 96.316C79.5155 106.18 83.8905 116.106 92.3235 121.501L108.849 132.074L97.5185 167.077L84.0385 211.518L135.667 216.008L151.97 159.66L174.714 174.211L211.723 142.966L213.744 141.202L211.153 139.629L212.368 139.443C230.872 135.446 244 117.787 241.46 98.157L236.753 69.5Z" fill="#FCBD21"/><path id="Fill 31" fill-rule="evenodd" clip-rule="evenodd" d="M84.6961 211.073L135.301 215.474L151.489 159.521C151.533 159.37 151.645 159.248 151.793 159.193C151.94 159.137 152.106 159.155 152.239 159.239L174.672 173.592L211.4 142.584L212.9 141.275L210.893 140.056C210.713 139.948 210.621 139.738 210.662 139.531C210.703 139.325 210.869 139.167 211.077 139.135L212.292 138.949C230.793 134.951 243.401 117.059 240.964 98.221L236.313 70H157.261L156.378 84.824C156.37 84.968 156.3 85.101 156.186 85.189C156.073 85.277 155.926 85.312 155.786 85.286L110.282 76.62C103.812 75.387 97.2681 76.774 91.8531 80.523C86.4381 84.273 82.8381 89.911 81.7151 96.401C80.0381 106.092 84.3081 115.779 92.5931 121.079L109.118 131.652C109.31 131.775 109.394 132.011 109.324 132.227L97.9941 167.231L84.6961 211.073ZM135.623 216.506L83.9951 212.016C83.8451 212.003 83.7091 211.923 83.6241 211.798C83.5401 211.673 83.5161 211.517 83.5601 211.373L97.0401 166.932L108.254 132.287L92.0541 121.922C83.4291 116.404 78.9841 106.32 80.7301 96.23C81.8991 89.474 85.6471 83.604 91.2841 79.701C96.9211 75.799 103.735 74.357 110.469 75.637L155.414 84.197L156.29 69.47C156.306 69.206 156.525 69 156.79 69H236.752C237.004 69 237.216 69.186 237.248 69.436L241.955 98.093C244.454 117.407 231.555 135.753 212.577 139.909L214.003 140.775C214.14 140.858 214.228 141.001 214.242 141.159C214.256 141.319 214.193 141.474 214.072 141.579L212.051 143.343L175.036 174.593C174.869 174.735 174.628 174.751 174.444 174.633L152.263 160.442L136.147 216.147C136.085 216.362 135.888 216.508 135.667 216.508C135.653 216.508 135.638 216.507 135.623 216.506Z" fill="black"/><path id="Fill 33" fill-rule="evenodd" clip-rule="evenodd" d="M145.548 100.298C145.297 100.298 145.081 100.11 145.052 99.8547C145.021 99.5797 145.218 99.3327 145.492 99.3007L188.71 94.3727C188.984 94.3347 189.233 94.5377 189.264 94.8127C189.295 95.0877 189.098 95.3347 188.824 95.3657L145.605 100.295C145.586 100.297 145.567 100.298 145.548 100.298" fill="black"/><path id="Fill 35" fill-rule="evenodd" clip-rule="evenodd" d="M154.991 162.094C154.899 162.094 154.805 162.069 154.722 162.015L105.412 130.469C105.18 130.32 105.112 130.011 105.261 129.778C105.41 129.545 105.719 129.478 105.951 129.626L155.261 161.173C155.493 161.322 155.562 161.631 155.413 161.864C155.317 162.012 155.156 162.094 154.991 162.094" fill="black"/><path id="Fill 37" fill-rule="evenodd" clip-rule="evenodd" d="M213.744 141.702C213.656 141.702 213.566 141.679 213.485 141.629L139.598 96.7695C139.362 96.6265 139.287 96.3195 139.43 96.0835C139.574 95.8465 139.881 95.7715 140.117 95.9155L214.004 140.775C214.24 140.918 214.315 141.225 214.172 141.461C214.078 141.617 213.913 141.702 213.744 141.702" fill="black"/><path id="Fill 39" fill-rule="evenodd" clip-rule="evenodd" d="M161.317 86.2659C161.287 86.2659 161.257 86.2639 161.227 86.2579L154.065 84.9579C153.794 84.9089 153.613 84.6489 153.663 84.3769C153.712 84.1059 153.971 83.9269 154.244 83.9739L161.406 85.2739C161.678 85.3229 161.858 85.5829 161.808 85.8549C161.765 86.0969 161.554 86.2659 161.317 86.2659" fill="black"/></g></g></g><g id="Head" transform="translate(193 182) scale(1 1)"><g id="Head/Embarrassed"><path id="Path 2" fill-rule="evenodd" clip-rule="evenodd" d="M12.5 43.7363C12.5 43.7363 16.0343 41.1592 15.4058 30.5163C15.4058 30.5163 20.9953 33.4358 27.0934 28.4994L28.5 43.6134C28.5 43.6134 24.2721 48.9732 19.8389 48.4534C15.4058 47.9337 12.5 43.7363 12.5 43.7363Z" fill="#fbefe3"/><path id="Path 2 Copy" fill-rule="evenodd" clip-rule="evenodd" d="M15.6185 29.1575C19.1685 31.0897 22.873 30.4235 26.799 27.1117C27.1106 26.8489 27.5511 27.076 27.5907 27.5201L28.9973 43.2699C29.0117 43.4301 28.9677 43.5899 28.876 43.711C25.9592 47.5642 22.9235 49.332 19.7865 48.9487C16.6923 48.5707 14.1229 46.8497 12.1037 43.8105C11.9264 43.5435 11.9825 43.1583 12.2257 42.9735C14.3851 41.3327 15.3152 36.9233 14.9069 29.7193C14.882 29.2794 15.274 28.9699 15.6185 29.1575ZM27.8541 43.348L26.5503 29L26.2853 29.199C22.7217 31.8029 19.2465 32.4147 15.9004 31.0061L15.7525 30.9417L15.7761 31.5369C15.9754 37.6673 15.094 41.732 13.0614 43.7146L13 43.7713L13.1374 43.9575C14.8463 46.2141 16.9214 47.5258 19.3801 47.9095L19.7177 47.956C22.5083 48.2909 25.2631 46.7152 28 43.1638L27.8541 43.348Z" fill="black"/><g id="Embarrassed"><path id="Skin" fill-rule="evenodd" clip-rule="evenodd" d="M19.7106 31.403C12.9646 31.403 7.49561 25.603 7.49561 18.449C7.49561 11.295 12.9646 5.495 19.7106 5.495C26.4556 5.495 31.9246 11.295 31.9246 18.449C31.9246 25.603 26.4556 31.403 19.7106 31.403Z" fill="#fbefe3"/><path id="Fill 3" fill-rule="evenodd" clip-rule="evenodd" d="M19.71 5.991C13.248 5.991 7.991 11.579 7.991 18.449C7.991 25.319 13.248 30.907 19.71 30.907C26.172 30.907 31.429 25.319 31.429 18.449C31.429 11.579 26.172 5.991 19.71 5.991M19.71 31.898C12.702 31.898 7 25.865 7 18.449C7 11.033 12.702 5 19.71 5C26.718 5 32.42 11.033 32.42 18.449C32.42 25.865 26.718 31.898 19.71 31.898" fill="black"/><path id="Fill 9" fill-rule="evenodd" clip-rule="evenodd" d="M16.2883 22.6058C16.2683 22.6058 16.2483 22.6048 16.2273 22.6028L14.1853 22.3548C14.0413 22.3368 13.9133 22.2588 13.8313 22.1388C13.7503 22.0198 13.7253 21.8708 13.7623 21.7308L14.3813 19.3788C14.4523 19.1128 14.7263 18.9558 14.9923 19.0228C15.2593 19.0938 15.4183 19.3668 15.3483 19.6338L14.8743 21.4308L16.3483 21.6088C16.6223 21.6428 16.8173 21.8918 16.7843 22.1658C16.7533 22.4198 16.5383 22.6058 16.2883 22.6058" fill="black"/><path id="Fill 11" fill-rule="evenodd" clip-rule="evenodd" d="M19.7099 18.1663C19.7099 18.7693 19.4029 19.2573 19.0229 19.2573C18.6449 19.2573 18.3369 18.7693 18.3369 18.1663C18.3369 17.5633 18.6449 17.0753 19.0229 17.0753C19.4029 17.0753 19.7099 17.5633 19.7099 18.1663" fill="black"/><path id="Fill 13" fill-rule="evenodd" clip-rule="evenodd" d="M13.0492 18.1663C13.0492 18.7693 12.7422 19.2573 12.3632 19.2573C11.9842 19.2573 11.6772 18.7693 11.6772 18.1663C11.6772 17.5633 11.9842 17.0753 12.3632 17.0753C12.7422 17.0753 13.0492 17.5633 13.0492 18.1663" fill="black"/><path id="Fill 15" fill-rule="evenodd" clip-rule="evenodd" d="M20.7351 15.7356C20.6201 15.7356 20.5041 15.6956 20.4091 15.6146C19.4411 14.7836 18.3651 14.8026 18.3491 14.8006C18.0561 14.7996 17.8441 14.5886 17.8381 14.3126C17.8311 14.0366 18.0491 13.8076 18.3261 13.8006C18.3891 13.8036 19.8061 13.7806 21.0611 14.8566C21.2701 15.0356 21.2941 15.3516 21.1141 15.5616C21.0161 15.6766 20.8761 15.7356 20.7351 15.7356" fill="black"/><path id="Fill 17" fill-rule="evenodd" clip-rule="evenodd" d="M10.6526 15.7356C10.5116 15.7356 10.3726 15.6766 10.2736 15.5616C10.0936 15.3516 10.1176 15.0356 10.3266 14.8566C11.5806 13.7806 13.0006 13.8006 13.0616 13.8006C13.3376 13.8076 13.5556 14.0366 13.5496 14.3126C13.5426 14.5846 13.3206 14.8006 13.0496 14.8006C13.0466 14.8006 13.0406 14.7986 13.0386 14.8006C12.9856 14.8006 11.9136 14.8116 10.9786 15.6146C10.8836 15.6956 10.7686 15.7356 10.6526 15.7356" fill="black"/><path id="Fill 19" fill-rule="evenodd" clip-rule="evenodd" d="M18.7739 24.3807C16.8329 26.1407 14.8989 26.3517 14.8989 26.3517C14.8989 26.3517 17.7959 29.5517 19.5359 26.9237C20.2239 25.8857 18.7739 24.3807 18.7739 24.3807" fill="black"/><path id="Fill 21" fill-rule="evenodd" clip-rule="evenodd" d="M15.9297 26.6185C16.4867 27.0565 17.2587 27.5185 17.9327 27.4555C18.3947 27.4205 18.7827 27.1565 19.1187 26.6485C19.4017 26.2225 19.0297 25.5345 18.7117 25.0925C17.6587 25.9465 16.6397 26.3905 15.9297 26.6185M17.8257 28.4605C16.1527 28.4605 14.5967 26.7625 14.5287 26.6875C14.4027 26.5485 14.3667 26.3505 14.4317 26.1755C14.4977 26.0005 14.6577 25.8765 14.8437 25.8545C14.8617 25.8525 16.6537 25.6285 18.4377 24.0105C18.6377 23.8295 18.9467 23.8385 19.1337 24.0335C19.2047 24.1065 20.8517 25.8435 19.9527 27.2005C19.4417 27.9725 18.7867 28.3945 18.0067 28.4535C17.9467 28.4575 17.8857 28.4605 17.8257 28.4605" fill="black"/><path id="Combined Shape" opacity="0.3" fill-rule="evenodd" clip-rule="evenodd" d="M11.3075 22.4196C12.5485 22.4196 13.5535 21.8726 13.5535 21.1966C13.5535 20.5206 12.5485 19.9736 11.3075 19.9736C10.0665 19.9736 9.06152 20.5206 9.06152 21.1966C9.06152 21.8726 10.0665 22.4196 11.3075 22.4196ZM20.5833 22.4196C21.8243 22.4196 22.8303 21.8726 22.8303 21.1966C22.8303 20.5206 21.8243 19.9736 20.5833 19.9736C19.3433 19.9736 18.3373 20.5206 18.3373 21.1966C18.3373 21.8726 19.3433 22.4196 20.5833 22.4196Z" fill="#FF5613"/></g></g></g><g id="Upper Body" transform="translate(58 111) scale(1 1)"><g id="Upper Body/Phone"><g id="Phone"><path id="Skin" fill-rule="evenodd" clip-rule="evenodd" d="M223.817 153.607L197.084 161.31L198.783 165.292C198.783 165.292 180.904 153.211 175.427 148.541C169.951 143.87 166.085 131.467 163.508 127.601C160.931 123.735 155.454 124.057 154.005 125.709C152.555 127.36 153.682 128.567 153.682 128.567C153.682 128.567 144.823 123.252 141.602 127.118C138.38 130.983 144.018 134.849 144.018 134.849C144.018 134.849 134.837 130.822 133.375 135.171C131.913 139.521 137.414 141.937 137.414 141.937C136.528 141.715 135.631 142.115 134.919 142.613C133.825 143.378 133.072 144.592 133.011 145.925C132.828 150 138.326 151.128 139.99 151.376C136.376 150.993 135.481 154.902 135.481 154.902C134.918 160.46 141.28 160.138 141.28 160.138C154.73 158.93 163.025 165.775 163.025 165.775C163.025 165.775 183.481 200.406 209.092 197.185C234.702 193.963 223.817 153.607 223.817 153.607M97.3074 148.057C95.6964 154.661 95.5624 156.511 95.5624 156.511L85.4064 153.219C85.4064 153.219 61.5484 186.554 81.3604 198.957C101.172 211.359 116.474 161.749 116.474 161.749C116.474 161.749 119.842 158.848 122.83 154.907L126.974 138.433C126.515 137.26 125.978 136.782 125.978 136.782C125.978 136.782 126.488 137.105 127.218 137.461L129.314 129.128C127.312 127.781 124.264 126.552 119.696 125.668C104.716 122.769 98.9184 141.453 97.3074 148.057" fill="#fbefe3"/><path id="Tshirt" fill-rule="evenodd" clip-rule="evenodd" d="M118.419 159.919L118.032 162.811L113.938 186.791H180.941C170.02 177.603 163.024 165.776 163.024 165.776C163.024 165.776 154.729 158.93 141.279 160.138C141.279 160.138 134.917 160.461 135.481 154.902C135.481 154.902 136.375 150.993 139.99 151.377C138.325 151.128 132.827 150.001 133.011 145.925C133.071 144.592 133.825 143.378 134.918 142.613C135.63 142.115 136.527 141.715 137.414 141.937C137.414 141.937 131.912 139.521 133.375 135.172C134.836 130.823 144.018 134.85 144.018 134.85C144.018 134.85 138.38 130.984 141.602 127.118C144.823 123.252 153.682 128.568 153.682 128.568C153.682 128.568 152.554 127.361 154.004 125.71C155.454 124.058 160.93 123.736 163.507 127.602C166.085 131.467 169.95 143.87 175.427 148.541C178.761 151.385 186.686 156.971 192.381 160.909L190.736 148.617L196.019 161.617L197.083 161.31L223.816 153.607L226.045 152.966L216.474 139.007C205.527 123.043 187.415 113.5 168.057 113.5H163.36C162.102 116.149 158.988 118.029 155.334 118.041C151.679 118.029 148.565 116.149 147.308 113.5H142.61C123.253 113.5 103.098 122.751 92.1516 138.715L83.3066 152.539L94.1146 156.043L95.5616 156.511C95.5616 156.511 95.6946 154.662 97.3056 148.058C98.9166 141.454 104.715 122.769 119.695 125.669C134.675 128.568 133.375 135.172 132.098 137.517C130.822 139.861 125.977 136.783 125.977 136.783C125.977 136.783 128.715 139.199 127.105 146.599C125.969 151.815 121.163 157.191 118.419 159.919" fill="#EFF2F7"/><path id="Phone_2" fill-rule="evenodd" clip-rule="evenodd" d="M141.279 160.138C141.279 160.138 134.917 160.46 135.48 154.902C135.48 154.902 136.375 150.993 139.989 151.376C138.325 151.128 132.827 150 133.01 145.925C133.071 144.592 133.824 143.378 134.918 142.613C135.63 142.115 136.527 141.715 137.413 141.937C137.413 141.937 131.912 139.521 133.374 135.172C134.836 130.823 144.017 134.849 144.017 134.849C144.017 134.849 138.38 130.984 141.601 127.118C144.393 123.767 151.411 127.309 153.235 128.314L153.337 127.909C153.201 127.436 153.208 126.739 153.838 125.918L154.423 123.59C154.773 122.199 153.929 120.788 152.539 120.439L135.268 116.095C133.878 115.745 132.467 116.589 132.117 117.979L122.731 155.297C122.382 156.687 123.225 158.098 124.615 158.448L141.886 162.791C143.277 163.141 144.687 162.298 145.037 160.907L145.259 160.023C143.985 159.992 142.667 160.013 141.279 160.138" fill="#FF5613"/><path id="Fill 7" fill-rule="evenodd" clip-rule="evenodd" d="M134.21 120.503C134.009 121.301 134.493 122.11 135.291 122.311C136.088 122.511 136.898 122.027 137.098 121.23C137.299 120.432 136.815 119.623 136.017 119.422C135.22 119.222 134.411 119.706 134.21 120.503" fill="#EFF2F7"/><path id="Fill 9" fill-rule="evenodd" clip-rule="evenodd" d="M134.694 120.625C134.561 121.154 134.883 121.692 135.412 121.826C135.669 121.89 135.934 121.851 136.161 121.715C136.388 121.58 136.548 121.364 136.612 121.107C136.677 120.852 136.638 120.585 136.502 120.359C136.367 120.132 136.151 119.972 135.894 119.907C135.365 119.771 134.827 120.096 134.694 120.625M135.657 122.856C135.494 122.856 135.33 122.836 135.168 122.795C134.104 122.528 133.457 121.445 133.724 120.381C133.992 119.317 135.074 118.668 136.139 118.938C136.654 119.067 137.088 119.39 137.361 119.846C137.633 120.301 137.712 120.836 137.582 121.352C137.453 121.867 137.13 122.301 136.674 122.574C136.362 122.761 136.012 122.856 135.657 122.856" fill="black"/><path id="Fill 11" fill-rule="evenodd" clip-rule="evenodd" d="M180.356 186.291H114.531L118.528 162.877L119.003 159.328C118.577 159.765 118.181 160.16 117.839 160.489L117.54 162.727L113.445 186.707C113.42 186.852 113.461 187.001 113.556 187.113C113.651 187.226 113.791 187.291 113.938 187.291H181.534C181.134 186.962 180.746 186.626 180.356 186.291" fill="black"/><path id="Fill 13" fill-rule="evenodd" clip-rule="evenodd" d="M226.457 152.683L216.886 138.725C205.842 122.617 187.588 113 168.057 113H163.359C163.166 113 162.991 113.112 162.908 113.286C161.686 115.86 158.712 117.531 155.335 117.541C151.955 117.531 148.981 115.86 147.759 113.286C147.677 113.112 147.501 113 147.308 113H142.61C122.301 113 102.333 122.983 91.7303 138.446L82.8853 152.27C82.8023 152.4 82.7833 152.562 82.8363 152.708C82.8883 152.854 83.0053 152.967 83.1523 153.015L85.1073 153.649C85.2973 153.37 85.4053 153.22 85.4053 153.22L95.5613 156.512C95.5613 156.512 95.5733 156.359 95.6243 156.006L84.0773 152.264L92.5643 138.998C102.977 123.813 122.621 114 142.61 114H146.999C148.462 116.758 151.693 118.53 155.335 118.541C158.974 118.53 162.205 116.758 163.668 114H168.057C187.258 114 205.203 123.454 216.061 139.29L225.24 152.677L196.312 161.012L191.199 148.429C191.104 148.195 190.849 148.069 190.608 148.134C190.364 148.199 190.207 148.434 190.24 148.683L191.825 160.525C192.205 160.787 192.576 161.044 192.937 161.293L191.753 152.449L195.555 161.805C195.651 162.043 195.91 162.168 196.157 162.098L197.281 161.774L197.083 161.31L223.816 153.608C223.816 153.608 223.862 153.778 223.94 154.093L226.183 153.446C226.337 153.402 226.461 153.286 226.516 153.135C226.569 152.983 226.548 152.815 226.457 152.683" fill="black"/><path id="Fill 16" fill-rule="evenodd" clip-rule="evenodd" d="M96.821 147.939C96.113 150.842 95.689 152.828 95.436 154.151C95.321 154.726 95.205 155.288 95.087 155.832L85.56 152.744C85.352 152.676 85.126 152.751 85 152.928C84.963 152.979 81.324 158.091 78.096 164.949C75.103 171.309 71.857 180.522 73.395 188.301C74.332 193.041 76.923 196.769 81.095 199.381C83.293 200.757 85.531 201.446 87.787 201.446C89.164 201.446 90.548 201.189 91.932 200.674C98.079 198.387 104.161 191.153 110.011 179.171C114.037 170.924 116.554 163.153 116.909 162.034C117.497 161.519 120.128 159.146 122.663 155.953C122.661 155.736 122.677 155.517 122.732 155.297L123.16 153.597C120.088 157.943 116.208 161.319 116.149 161.37C116.077 161.431 116.025 161.512 115.997 161.602C115.895 161.93 105.708 194.483 91.583 199.737C88.238 200.98 84.888 200.575 81.626 198.533C77.697 196.073 75.258 192.566 74.376 188.109C71.717 174.659 83.85 156.364 85.604 153.809L94.868 156.812C91.868 169.967 88.013 173.564 87.956 173.616C87.75 173.797 87.729 174.112 87.91 174.32C88.009 174.433 88.148 174.491 88.287 174.491C88.404 174.491 88.521 174.45 88.616 174.367C88.797 174.209 92.789 170.574 95.879 156.885C95.98 156.799 96.05 156.682 96.06 156.548C96.061 156.537 96.124 155.794 96.547 153.691C96.55 153.677 96.552 153.663 96.555 153.648C96.813 152.368 97.204 150.591 97.793 148.176C99.63 140.643 105.437 123.418 119.601 126.159C123.796 126.971 127.026 128.156 129.183 129.65L129.444 128.611C127.186 127.136 123.965 125.985 119.791 125.178C104.779 122.272 98.726 140.127 96.821 147.939M126.244 136.36L122.414 133.915C122.354 133.876 122.289 133.854 122.222 133.843C118.525 130.862 112.823 130.429 112.481 130.406C112.202 130.402 111.968 130.596 111.949 130.871C111.93 131.147 112.138 131.385 112.414 131.404C112.526 131.411 123.607 132.252 124.312 139.469C124.983 146.325 123.77 148.174 122.988 148.666C122.336 149.076 121.403 148.918 120.216 148.202C120.429 145.942 119.799 143.019 118.308 139.437C116.08 134.081 108.545 135.484 108.224 135.547C107.954 135.6 107.777 135.862 107.83 136.133C107.883 136.404 108.142 136.581 108.416 136.528C108.486 136.516 115.47 135.219 117.391 139.836C120.189 146.561 119.836 150.716 116.384 152.172C115.765 152.366 114.012 152.705 113.349 151.938C113.347 151.936 113.344 151.935 113.342 151.933C114.155 149.522 114.26 146.367 113.949 144.197C113.227 139.158 105.531 139.663 105.203 139.685C104.928 139.705 104.721 139.944 104.741 140.219C104.761 140.495 105 140.71 105.276 140.682C105.346 140.675 112.369 140.219 112.96 144.338C113.411 147.487 112.891 152.776 110.771 154.103C109.954 154.613 108.919 154.452 107.695 153.624C104.196 151.255 107.514 145.222 107.549 145.161C107.683 144.92 107.597 144.616 107.356 144.481C107.116 144.346 106.811 144.431 106.676 144.672C106.623 144.768 106.169 145.601 105.758 146.762C105.323 146.567 105.185 145.462 105.228 144.768C105.246 144.493 105.037 144.255 104.761 144.237C104.486 144.212 104.249 144.427 104.23 144.703C104.214 144.954 104.106 147.173 105.392 147.696C105.414 147.705 105.437 147.703 105.459 147.709C104.851 149.919 104.691 152.798 107.134 154.452C108.167 155.151 109.038 155.394 109.75 155.394C110.398 155.394 110.914 155.193 111.301 154.951C111.995 154.517 112.537 153.791 112.956 152.902C113.484 153.28 114.156 153.41 114.794 153.41C115.767 153.41 116.641 153.138 116.729 153.109C118.509 152.36 119.615 151.069 120.05 149.25C120.828 149.668 121.541 149.891 122.176 149.891C122.669 149.891 123.118 149.765 123.52 149.512C125.258 148.42 125.859 145.008 125.307 139.372C125.195 138.224 124.86 137.227 124.374 136.352L125.664 137.176C125.763 137.277 126.345 137.922 126.742 139.356L127.343 136.965C126.885 136.738 126.491 136.516 126.246 136.36C126.245 136.36 126.245 136.36 126.244 136.36M221.33 189.445C218.558 193.574 214.42 196.011 209.029 196.689C184.042 199.826 163.658 165.865 163.455 165.522C163.426 165.472 163.388 165.427 163.343 165.39C163.027 165.129 156.052 159.492 144.502 159.492C143.457 159.492 142.373 159.539 141.256 159.639C141.225 159.644 138.382 159.758 136.88 158.174C136.143 157.398 135.841 156.314 135.968 155.014C136.002 154.869 136.779 151.675 139.736 151.847C140.121 151.908 140.374 151.933 140.428 151.939C140.474 151.943 140.517 151.933 140.561 151.925C142.976 152.338 146.964 153.087 149.429 153.909C149.482 153.926 149.535 153.935 149.588 153.935C149.797 153.935 149.992 153.802 150.062 153.593C150.149 153.331 150.008 153.047 149.746 152.96C146.047 151.727 139.28 150.696 138.699 150.609C136.579 150.087 133.382 148.823 133.511 145.948C133.562 144.823 134.195 143.73 135.205 143.023C135.99 142.474 136.693 142.273 137.293 142.422C137.309 142.426 137.325 142.422 137.342 142.425C137.358 142.427 137.371 142.436 137.387 142.437C137.415 142.438 138.551 142.51 140.415 142.876L148.921 145.535C149.945 145.974 151.003 146.47 152.09 147.041C152.164 147.08 152.243 147.099 152.322 147.099C152.502 147.099 152.675 147.002 152.764 146.831C152.893 146.587 152.799 146.285 152.554 146.156C144.748 142.052 138.379 141.501 137.538 141.444C136.899 141.145 132.621 138.985 133.849 135.331C134.059 134.705 134.465 134.267 135.088 133.991C137.901 132.744 143.759 135.282 143.817 135.308C143.829 135.313 143.842 135.312 143.854 135.316C143.865 135.32 143.873 135.328 143.884 135.332C143.923 135.342 146.076 135.948 148.716 137.064L151.609 138.427C152.808 139.058 153.991 139.776 155.028 140.579C155.119 140.649 155.227 140.683 155.334 140.683C155.483 140.683 155.631 140.616 155.73 140.489C155.899 140.271 155.859 139.957 155.64 139.788C151.387 136.497 145.026 134.617 144.239 134.393C143.835 134.099 141.438 132.271 141.138 130.092C141.009 129.147 141.286 128.279 141.986 127.439C144.897 123.943 153.341 128.945 153.426 128.997C153.433 129.002 153.443 129.002 153.451 129.006C153.458 129.01 153.463 129.017 153.471 129.021C153.505 129.037 156.919 130.651 160.079 133.607C160.175 133.698 160.298 133.742 160.42 133.742C160.553 133.742 160.687 133.689 160.785 133.584C160.974 133.382 160.964 133.066 160.761 132.877C157.747 130.056 154.602 128.459 154 128.166C153.84 127.949 153.397 127.16 154.381 126.039C154.976 125.361 156.461 124.955 157.999 125.06C160.135 125.201 161.992 126.229 163.092 127.879C163.927 129.132 164.92 131.348 166.069 133.913C168.429 139.179 171.366 145.733 175.103 148.921C179.715 152.855 193.215 162.108 197.309 164.896C197.382 164.947 197.469 165.006 197.576 165.078C198.143 165.463 198.48 165.69 198.503 165.707C198.562 165.747 198.632 165.75 198.698 165.761C200.282 166.65 202.86 167.794 205.629 167.794C205.882 167.794 206.137 167.784 206.393 167.764C206.668 167.742 206.874 167.501 206.852 167.226C206.83 166.951 206.591 166.752 206.314 166.767C205.798 166.808 205.283 166.797 204.776 166.751L199.399 164.996C199.308 164.947 199.223 164.899 199.138 164.851L197.765 161.634L223.459 154.231C224.299 157.674 228.867 178.218 221.33 189.445M226.44 166.921C225.907 159.5 224.316 153.537 224.3 153.477C224.265 153.348 224.179 153.238 224.063 153.172C223.945 153.106 223.807 153.088 223.678 153.127L196.945 160.83C196.807 160.869 196.694 160.966 196.632 161.096C196.571 161.225 196.568 161.375 196.624 161.506L197.654 163.921C193.325 160.971 180.248 151.995 175.752 148.161C172.186 145.119 169.301 138.679 166.982 133.503C165.814 130.897 164.806 128.647 163.924 127.324C162.65 125.413 160.514 124.224 158.065 124.062C156.186 123.94 154.441 124.455 153.629 125.379C152.952 126.15 152.744 126.884 152.766 127.496C150.165 126.158 143.97 123.498 141.218 126.798C140.339 127.853 139.979 129.008 140.148 130.231C140.324 131.506 141.053 132.642 141.808 133.51C139.691 132.852 136.653 132.205 134.683 133.076C133.801 133.466 133.202 134.118 132.901 135.013C131.899 137.995 133.884 140.304 135.772 141.588C135.401 141.727 135.02 141.932 134.632 142.204C133.369 143.086 132.577 144.47 132.512 145.903C132.369 149.065 135.19 150.601 137.506 151.326C136.012 152.127 135.231 153.746 134.984 154.852C134.815 156.519 135.21 157.869 136.157 158.866C137.98 160.783 141.17 160.643 141.325 160.636C153.791 159.516 161.851 165.496 162.643 166.111C163.732 167.908 182.301 197.894 205.754 197.894C206.875 197.894 208.011 197.825 209.154 197.681C214.845 196.965 219.221 194.381 222.162 190.001C226.593 183.397 226.934 173.805 226.44 166.921" fill="black"/><path id="Fill 19" fill-rule="evenodd" clip-rule="evenodd" d="M144.72 160.015L144.528 160.779C144.393 161.315 144.057 161.767 143.582 162.051C143.107 162.335 142.55 162.417 142.014 162.282L124.744 157.938C124.207 157.803 123.756 157.467 123.471 156.993C123.187 156.518 123.105 155.961 123.24 155.424L132.627 118.107C132.863 117.168 133.709 116.54 134.636 116.54C134.803 116.54 134.971 116.561 135.14 116.603L152.411 120.948C152.947 121.082 153.399 121.418 153.683 121.893C153.967 122.368 154.049 122.925 153.914 123.461L152.758 128.058C153.331 128.359 153.681 128.567 153.681 128.567C153.681 128.567 152.554 127.36 154.004 125.709C154.144 125.549 154.331 125.407 154.54 125.274L154.932 123.717C155.136 122.909 155.012 122.069 154.584 121.354C154.156 120.639 153.475 120.133 152.667 119.929L135.396 115.585C133.727 115.164 132.028 116.182 131.608 117.851L122.222 155.168C122.019 155.977 122.142 156.816 122.57 157.532C122.998 158.247 123.679 158.753 124.488 158.956L141.758 163.3C142.012 163.364 142.269 163.396 142.525 163.396C143.082 163.396 143.631 163.245 144.121 162.952C144.837 162.524 145.343 161.843 145.546 161.035L145.799 160.029C145.447 160.015 145.081 160.018 144.72 160.015" fill="black"/></g></g></g><g id="Accesories" transform="translate(193 182) scale(39 49)"><g id="Accesories/No Accesory" stroke="none" stroke-width="1" fill="none" fill-rule="evenodd" fill-opacity="0"/></g><g id="Hair" transform="translate(143 149) scale(1 1)"><g id="Hair/Short Fluffy"><g id="Short Fluffy"><path id="Hair" fill-rule="evenodd" clip-rule="evenodd" d="M79.3344 37.8549C79.3344 37.8549 79.8534 28.5139 70.7664 27.5899C61.6794 26.6669 51.9764 32.9889 58.8054 41.0369C64.5534 47.8119 74.7154 41.9609 74.7154 41.9609C74.7154 41.9609 73.3804 46.6829 75.3314 48.6329C75.3314 48.6329 74.2024 51.9179 75.7414 54.0729C75.7414 54.0729 74.7674 57.3579 78.0254 60.7449C78.0254 60.7449 84.3644 59.1029 86.2114 48.9409C88.0594 38.7789 79.3344 37.8549 79.3344 37.8549" fill="#040226"/><path id="Fill 3" fill-rule="evenodd" clip-rule="evenodd" d="M74.7148 41.4608C74.8238 41.4608 74.9328 41.4968 75.0228 41.5668C75.1828 41.6908 75.2518 41.9008 75.1968 42.0968C75.1838 42.1408 73.9648 46.5598 75.6848 48.2788C75.8188 48.4138 75.8658 48.6138 75.8038 48.7948C75.7938 48.8248 74.7798 51.8658 76.1488 53.7828C76.2378 53.9078 76.2648 54.0678 76.2208 54.2148C76.1868 54.3338 75.4248 57.1388 78.1738 60.1718C79.3878 59.7288 84.1538 57.4648 85.7198 48.8518C86.2908 45.7138 85.8798 43.1858 84.4998 41.3358C82.5608 38.7378 79.3138 38.3558 79.2808 38.3518C79.0168 38.3228 78.8208 38.0928 78.8358 37.8278C78.8548 37.4658 79.2108 28.9518 70.7148 28.0878C65.1018 27.5158 59.4768 29.7338 57.6298 33.2458C56.4328 35.5208 56.9708 38.1028 59.1868 40.7128C64.5948 47.0878 74.3678 41.5828 74.4658 41.5268C74.5438 41.4828 74.6298 41.4608 74.7148 41.4608M78.0258 61.2448C77.8918 61.2448 77.7608 61.1908 77.6658 61.0918C74.7158 58.0258 75.0338 55.0318 75.2058 54.1718C73.9628 52.2148 74.5288 49.6208 74.7708 48.7578C73.4548 47.1608 73.7208 44.3938 73.9978 42.8808C71.2548 44.1568 63.3088 47.1188 58.4238 41.3598C55.2638 37.6368 55.7668 34.6388 56.7448 32.7798C58.7708 28.9278 64.8208 26.4838 70.8168 27.0928C79.0858 27.9338 79.7918 35.4858 79.8358 37.4288C80.8838 37.6328 83.5218 38.3608 85.2928 40.7278C86.8528 42.8098 87.3268 45.6028 86.7038 49.0298C84.8208 59.3878 78.4228 61.1588 78.1518 61.2288C78.1098 61.2398 78.0678 61.2448 78.0258 61.2448" fill="black"/></g></g></g><g id="Facial Hair" transform="translate(193 182) scale(39 49)"><g id="Facial Hair/No Facial Hair" stroke="none" stroke-width="1" fill="none" fill-rule="evenodd" fill-opacity="0"/></g></g></g></g></svg>