<svg viewBox="118.21800000000002 78.0395104895105 732.5640000000001 534.920979020979" fill="none" xmlns="http://www.w3.org/2000/svg" xmlns:xlink="http://www.w3.org/1999/xlink" overflow="visible" width="678.3000000000001px" height="495.2972027972027px"><rect id="Blush Background Color" fill="#6c4894" x="118.21800000000002" y="78.0395104895105" width="732.5640000000001" height="534.920979020979"/><g id="Master/Scenes/Choosing Product"><g id="Device" transform="translate(283.066 10.0001) scale(1 1)"><g id="Device/Phone"><g id="Phone"><path id="Fill 3" fill-rule="evenodd" clip-rule="evenodd" d="M304.088 525.905H108.162C98.4075 525.905 90.5005 517.998 90.5005 508.243V479.795H321.751V508.243C321.751 517.998 313.843 525.905 304.088 525.905" fill="black"/><path id="Fill 9" fill-rule="evenodd" clip-rule="evenodd" d="M206.126 488.679C199.034 488.679 193.265 494.449 193.265 501.54C193.265 508.633 199.034 514.403 206.126 514.403C213.218 514.403 218.988 508.633 218.988 501.54C218.988 494.449 213.218 488.679 206.126 488.679M206.126 515.403C198.483 515.403 192.265 509.184 192.265 501.54C192.265 493.897 198.483 487.679 206.126 487.679C213.77 487.679 219.988 493.897 219.988 501.54C219.988 509.184 213.77 515.403 206.126 515.403" fill="white"/><path id="Fill 1" fill-rule="evenodd" clip-rule="evenodd" d="M110.479 96C100.348 96 92.106 104.242 92.106 114.373L91 507.033C91 517.163 99.242 525.405 109.373 525.405H302.878C313.009 525.405 321.251 517.163 321.251 507.032L322.357 114.372C322.357 104.242 314.115 96 303.984 96H110.479ZM302.878 526.405H109.373C98.691 526.405 90 517.715 90 507.032L91.106 114.372C91.106 103.691 99.797 95 110.479 95H303.984C314.666 95 323.357 103.691 323.357 114.373L322.251 507.033C322.251 517.715 313.56 526.405 302.878 526.405V526.405Z" fill="black"/></g></g></g><g id="Store Option" transform="translate(380.856 224.803) scale(1 1)"><g id="Store Option/Shoe"><g id="Shoe"><path id="Combined Shape" fill-rule="evenodd" clip-rule="evenodd" d="M40.9799 144.506H102.81C104.546 144.506 105.954 143.098 105.954 141.362C105.954 139.626 104.546 138.218 102.81 138.218H40.9799C39.2439 138.218 37.8359 139.626 37.8359 141.362C37.8359 143.098 39.2439 144.506 40.9799 144.506ZM40.98 156.043H127.786C129.522 156.043 130.93 154.636 130.93 152.899C130.93 151.163 129.522 149.755 127.786 149.755H40.98C39.244 149.755 37.836 151.163 37.836 152.899C37.836 154.636 39.244 156.043 40.98 156.043Z" fill="#EEF2F8"/><path id="Combined Shape_2" fill-rule="evenodd" clip-rule="evenodd" d="M31.0001 30.6672C31.0001 27.5472 33.5381 25.0092 36.6581 25.0092H183.109C186.229 25.0092 188.767 27.5472 188.767 30.6672V126.186H31.0001V30.6672ZM30.0001 126.696V159.302C30.0001 162.973 32.9871 165.96 36.6581 165.96H183.109C186.78 165.96 189.767 162.973 189.767 159.302V30.6672C189.767 26.9962 186.78 24.0092 183.109 24.0092H36.6581C32.9871 24.0092 30.0001 26.9962 30.0001 30.6672V126.675C30 126.679 30 126.682 30 126.686C30 126.689 30 126.692 30.0001 126.696ZM31.0001 127.186H188.767V159.302C188.767 162.422 186.229 164.96 183.109 164.96H36.6581C33.5381 164.96 31.0001 162.422 31.0001 159.302V127.186Z" fill="black"/><path id="Shoe_2" fill-rule="evenodd" clip-rule="evenodd" d="M58.7178 102.624H163.876L163.61 101.885C160.218 92.4454 152.028 85.5474 142.149 83.8114L132.113 82.0474C126.966 81.1434 122.176 78.8094 118.292 75.3134L118.074 75.1184H58.7178V102.624Z" fill="#FF5613"/><path id="Fill 29" fill-rule="evenodd" clip-rule="evenodd" d="M59.2178 102.124H163.165L163.139 102.054C159.817 92.8064 151.74 86.0044 142.062 84.3044L132.026 82.5404C126.781 81.6184 121.916 79.2484 117.958 75.6854L117.883 75.6184H59.2178V102.124ZM163.876 103.124H58.7178C58.4418 103.124 58.2178 102.9 58.2178 102.624V75.1184C58.2178 74.8414 58.4418 74.6184 58.7178 74.6184H118.074C118.198 74.6184 118.317 74.6644 118.409 74.7464L118.627 74.9424C122.446 78.3784 127.139 80.6664 132.199 81.5554L142.235 83.3184C152.266 85.0824 160.637 92.1314 164.081 101.716L164.346 102.455C164.401 102.608 164.378 102.778 164.285 102.912C164.191 103.045 164.038 103.124 163.876 103.124V103.124Z" fill="black"/><path id="Fill 31" fill-rule="evenodd" clip-rule="evenodd" d="M58.7178 96.3822H160.905C161.99 98.0942 162.908 99.9312 163.611 101.885L163.876 102.624H58.7178V96.3822Z" fill="#EEF2F8"/><path id="Fill 33" fill-rule="evenodd" clip-rule="evenodd" d="M59.2178 102.124H163.165L163.14 102.054C162.502 100.279 161.658 98.5414 160.629 96.8824H59.2178V102.124ZM163.876 103.124H58.7178C58.4418 103.124 58.2178 102.9 58.2178 102.624V96.3824C58.2178 96.1054 58.4418 95.8824 58.7178 95.8824H160.905C161.076 95.8824 161.236 95.9704 161.327 96.1144C162.462 97.9044 163.389 99.7894 164.081 101.716L164.346 102.455C164.401 102.608 164.378 102.779 164.284 102.912C164.191 103.045 164.038 103.124 163.876 103.124V103.124Z" fill="black"/></g></g></g><g id="Store Option" transform="translate(139.918 194.586) scale(1 1)"><g id="Store Option/Purse"><g id="Purse"><path id="Combined Shape" fill-rule="evenodd" clip-rule="evenodd" d="M40.9799 144.497H102.81C104.546 144.497 105.954 143.09 105.954 141.353C105.954 139.617 104.546 138.209 102.81 138.209H40.9799C39.2439 138.209 37.8359 139.617 37.8359 141.353C37.8359 143.09 39.2439 144.497 40.9799 144.497ZM40.9805 156.034H127.787C129.523 156.034 130.931 154.626 130.931 152.89C130.931 151.154 129.523 149.746 127.787 149.746H40.9805C39.2445 149.746 37.8365 151.154 37.8365 152.89C37.8365 154.626 39.2445 156.034 40.9805 156.034Z" fill="#EEF2F8"/><path id="Combined Shape_2" fill-rule="evenodd" clip-rule="evenodd" d="M31.0001 30.658C31.0001 27.538 33.5381 25 36.6581 25H183.109C186.229 25 188.767 27.538 188.767 30.658V126.177H31.0001V30.658ZM30.0001 126.687V159.293C30.0001 162.964 32.9871 165.951 36.6581 165.951H183.109C186.78 165.951 189.767 162.964 189.767 159.293V30.658C189.767 26.987 186.78 24 183.109 24H36.6581C32.9871 24 30.0001 26.987 30.0001 30.658V126.667C30 126.67 30 126.673 30 126.677C30 126.68 30 126.684 30.0001 126.687ZM31.0001 127.177H188.767V159.293C188.767 162.413 186.229 164.951 183.109 164.951H36.6581C33.5381 164.951 31.0001 162.413 31.0001 159.293V127.177Z" fill="black"/><path id="Purse_2" fill-rule="evenodd" clip-rule="evenodd" d="M132.11 77.4566H87.6586C83.8546 77.4566 80.5716 80.1256 79.7956 83.8496L74.4686 109.409C73.4296 114.397 77.2366 119.08 82.3316 119.08H137.437C142.532 119.08 146.339 114.397 145.3 109.409L139.973 83.8496C139.197 80.1256 135.914 77.4566 132.11 77.4566" fill="#FFBA00"/><path id="Combined Shape_3" fill-rule="evenodd" clip-rule="evenodd" d="M125.694 84.148C125.694 84.424 125.918 84.648 126.194 84.648C126.47 84.648 126.694 84.424 126.694 84.148V77.9566H132.11C135.659 77.9566 138.759 80.4776 139.483 83.9516L144.81 109.511C145.275 111.74 144.717 114.032 143.281 115.799C141.844 117.566 139.714 118.58 137.436 118.58H82.3315C80.0545 118.58 77.9245 117.566 76.4875 115.799C75.0515 114.032 74.4935 111.74 74.9575 109.511L80.2845 83.9516C81.0095 80.4776 84.1105 77.9566 87.6585 77.9566H93.0731V84.148C93.0731 84.424 93.2971 84.648 93.5731 84.648C93.8491 84.648 94.0731 84.424 94.0731 84.148V77.9566H125.694V84.148ZM126.694 76.9566V72.003C126.694 64.127 120.286 57.718 112.409 57.718H107.358C99.4811 57.718 93.0731 64.127 93.0731 72.003V76.9566H87.6585C83.6385 76.9566 80.1265 79.8126 79.3055 83.7476L73.9795 109.307C73.4525 111.832 74.0845 114.429 75.7115 116.43C77.3395 118.432 79.7515 119.58 82.3315 119.58H137.436C140.016 119.58 142.429 118.432 144.056 116.43C145.684 114.429 146.315 111.832 145.789 109.307L140.462 83.7476C139.642 79.8126 136.13 76.9566 132.11 76.9566H126.694ZM94.0731 76.9566H125.694V72.003C125.694 64.678 119.735 58.718 112.409 58.718H107.358C100.032 58.718 94.0731 64.678 94.0731 72.003V76.9566Z" fill="black"/></g></g></g><g id="Store Option" transform="translate(624.051 195.261) scale(1 1)"><g id="Store Option/Sweater"><g id="Sweater"><g id="Group 10"><path id="Sweater_2" fill-rule="evenodd" clip-rule="evenodd" d="M35.4648 114.428C35.4648 114.428 38.8664 107.831 46.3729 78.2067C53.8785 48.5822 81.2912 41.9859 81.2912 41.9859V41.9868C85.2546 40.7225 89.3801 39.9027 93.5978 39.5691C93.6164 39.5673 93.636 39.5645 93.6546 39.5635C94.2965 39.5142 94.9403 39.4778 95.586 39.4499C95.6521 39.4471 95.7164 39.4415 95.7825 39.4396C96.4897 39.4107 97.1996 39.3977 97.9105 39.3977H102.292C102.293 39.3996 102.294 39.4014 102.295 39.4042L102.33 39.3977H102.333C103.506 41.8676 106.411 43.621 109.821 43.6285C113.229 43.621 116.134 41.8676 117.307 39.3977H117.311H117.312L117.345 39.4042C117.347 39.4014 117.348 39.3996 117.349 39.3977H121.73C122.442 39.3977 123.151 39.4107 123.859 39.4396C123.924 39.4415 123.989 39.4471 124.055 39.4499C124.7 39.4778 125.345 39.5142 125.986 39.5635C126.005 39.5645 126.024 39.5673 126.043 39.5691C130.26 39.9027 134.387 40.7225 138.351 41.9868L138.35 41.9859C138.35 41.9859 165.763 48.5822 173.268 78.2067C180.775 107.831 184.175 114.428 184.175 114.428H158.029C158.029 114.428 153.469 93.5486 145.396 81.6148C145.987 91.6238 147.832 107.681 147.832 107.681H71.8086C71.8086 107.681 73.6543 91.6238 74.245 81.6148C66.172 93.5486 61.6114 114.428 61.6114 114.428H35.4648Z" fill="#409B81"/><path id="Combined Shape" fill-rule="evenodd" clip-rule="evenodd" d="M145.782 81.3539C153.225 92.3561 157.743 111.109 158.401 113.962H183.448C182.45 111.673 179.072 103.008 172.818 78.3213C165.465 49.3052 138.513 42.5049 138.24 42.4387C134.246 41.166 130.141 40.3601 126.007 40.0331C125.313 39.9791 124.675 39.9428 124.035 39.9157C124.031 39.9148 123.94 39.9101 123.936 39.9101L123.84 39.9055C123.138 39.8766 122.435 39.8636 121.73 39.8636H117.594C116.23 42.4359 113.216 44.0869 109.822 44.0943C106.426 44.0869 103.412 42.4359 102.047 39.8636H97.9109C97.2057 39.8636 96.5032 39.8766 95.8016 39.9055L95.7038 39.9101C95.7019 39.9106 95.6779 39.9118 95.6541 39.913C95.6311 39.9141 95.6083 39.9153 95.606 39.9157C94.9659 39.9428 94.3277 39.9791 93.6914 40.0285C89.4998 40.3601 85.3948 41.167 81.4333 42.4313C81.1268 42.5049 54.1901 49.2474 46.8243 78.3213C40.569 103.008 37.1898 111.673 36.1929 113.962H61.2401C61.8979 111.109 66.4175 92.3561 73.8597 81.3539C73.8822 81.3206 73.9144 81.3013 73.9469 81.2819C73.9615 81.2732 73.9762 81.2644 73.9901 81.2542L74.9721 70.9145C74.9973 70.6574 75.2442 70.4738 75.4799 70.4943C75.7361 70.5185 75.9243 70.7459 75.9001 71.0021L74.2221 88.6778C74.2175 88.7375 74.1998 88.7924 74.1746 88.8437C73.5057 96.6651 72.5721 105.072 72.3299 107.215H147.311C147.076 105.13 146.188 97.1244 145.523 89.4921C145.523 89.4917 145.523 89.491 145.523 89.4903C145.523 89.4896 145.522 89.4889 145.522 89.4884L143.673 70.9909C143.647 70.7356 143.834 70.5064 144.09 70.4813C144.336 70.4552 144.574 70.6424 144.6 70.8977L145.633 81.2412C145.643 81.2473 145.654 81.2532 145.664 81.259C145.708 81.2843 145.752 81.3093 145.782 81.3539ZM173.72 78.0921C181.11 107.257 184.556 114.148 184.59 114.214C184.664 114.36 184.658 114.531 184.574 114.671C184.489 114.809 184.338 114.893 184.176 114.893H158.029C157.809 114.893 157.62 114.741 157.574 114.526C157.53 114.328 153.311 95.2723 145.975 83.3719C146.631 92.9693 148.177 106.592 148.289 107.573L148.295 107.628C148.31 107.76 148.268 107.892 148.18 107.992C148.092 108.09 147.965 108.147 147.832 108.147H71.8091C71.6759 108.147 71.5491 108.09 71.4616 107.992C71.3731 107.892 71.3311 107.76 71.346 107.628C71.3466 107.623 71.3487 107.605 71.3524 107.572C71.4645 106.585 73.0109 92.9661 73.6669 83.3719C66.3308 95.2723 62.1103 114.328 62.0675 114.526C62.0209 114.741 61.8318 114.893 61.6119 114.893H35.4653C35.3032 114.893 35.1523 114.809 35.0675 114.671C34.9827 114.531 34.9762 114.36 35.0507 114.214C35.0852 114.148 38.5324 107.257 45.9215 78.0921C53.4094 48.5365 80.9051 41.5993 81.1818 41.5331C85.1805 40.2577 89.3572 39.4369 93.561 39.1052C94.2653 39.0493 94.9147 39.0129 95.5668 38.9841L95.77 38.9738C96.4771 38.9449 97.1936 38.9319 97.9109 38.9319H102.33C102.511 38.9319 102.677 39.0353 102.755 39.1974C103.895 41.5993 106.67 43.1561 109.822 43.1626C112.972 43.1561 115.746 41.5993 116.885 39.1974C116.963 39.0353 117.127 38.9319 117.308 38.9319H121.73C122.448 38.9319 123.164 38.9449 123.877 38.9738L123.998 38.9803C124.726 39.0129 125.376 39.0493 126.022 39.0996C130.287 39.4378 134.463 40.2577 138.493 41.5434H138.492C140.296 41.9719 166.385 49.1421 173.72 78.0921Z" fill="black"/></g><path id="Combined Shape_2" fill-rule="evenodd" clip-rule="evenodd" d="M40.7319 144.288H102.562C104.298 144.288 105.706 142.881 105.706 141.144C105.706 139.408 104.298 138 102.562 138H40.7319C38.9959 138 37.5879 139.408 37.5879 141.144C37.5879 142.881 38.9959 144.288 40.7319 144.288ZM40.7325 155.826H127.538C129.274 155.826 130.682 154.418 130.682 152.682C130.682 150.946 129.274 149.538 127.538 149.538H40.7325C38.9965 149.538 37.5885 150.946 37.5885 152.682C37.5885 154.418 38.9965 155.826 40.7325 155.826Z" fill="#EEF2F8"/><path id="Combined Shape_3" fill-rule="evenodd" clip-rule="evenodd" d="M30.7521 30.4499C30.7521 27.3299 33.2901 24.7919 36.4101 24.7919H182.861C185.981 24.7919 188.519 27.3299 188.519 30.4499V125.969H30.7521V30.4499ZM29.7521 126.479V159.085C29.7521 162.756 32.7391 165.743 36.4101 165.743H182.861C186.532 165.743 189.519 162.756 189.519 159.085V30.4499C189.519 26.7789 186.532 23.7919 182.861 23.7919H36.4101C32.7391 23.7919 29.7521 26.7789 29.7521 30.4499V126.459C29.752 126.462 29.752 126.465 29.752 126.469C29.752 126.472 29.752 126.475 29.7521 126.479ZM30.7521 126.969H188.519V159.085C188.519 162.205 185.981 164.743 182.861 164.743H36.4101C33.2901 164.743 30.7521 162.205 30.7521 159.085V126.969Z" fill="black"/></g></g></g><g id="Package" transform="translate(216.528 442.198) scale(1 1)"><g id="Package/Stack of Boxes"><g id="Boxes"><path id="Bottom Box" fill-rule="evenodd" clip-rule="evenodd" d="M48 145H175V84H48V145Z" fill="#FCBD21"/><path id="Fill 7" fill-rule="evenodd" clip-rule="evenodd" d="M78.6617 144.491L143.588 144.25L143.837 131.608H78.5566L78.6617 144.491Z" fill="#EEF2F8"/><path id="Fill 9" fill-rule="evenodd" clip-rule="evenodd" d="M79 98H144V84H79V98Z" fill="#EEF2F8"/><path id="Combined Shape" fill-rule="evenodd" clip-rule="evenodd" d="M47.9643 145.031H174.036V83.9696H144V97.4937C144 97.7732 143.785 98 143.52 98H78.4802C78.2142 98 78 97.7732 78 97.4937V83.9696H47.9643V145.031ZM78.4802 83H143.52H174.518C174.785 83 175 83.217 175 83.4843V145.516C175 145.783 174.785 146 174.518 146H47.4821C47.216 146 47 145.783 47 145.516V83.4843C47 83.217 47.216 83 47.4821 83H78.4802ZM79 144H143V132H79V144ZM143.52 145H78.4802C78.2142 145 78 144.789 78 144.527V131.473C78 131.211 78.2142 131 78.4802 131H143.52C143.785 131 144 131.211 144 131.473V144.527C144 144.789 143.785 145 143.52 145ZM143 97H79V84H143V97Z" fill="black"/><path id="Top Box" fill-rule="evenodd" clip-rule="evenodd" d="M59 84H150V40H59V84Z" fill="#FCBD21"/><path id="Fill 15" fill-rule="evenodd" clip-rule="evenodd" d="M81 83H128V74H81V83Z" fill="#EEF2F8"/><path id="Fill 17" fill-rule="evenodd" clip-rule="evenodd" d="M81 49H128V40H81V49Z" fill="#EEF2F8"/><path id="Combined Shape_2" fill-rule="evenodd" clip-rule="evenodd" d="M59.9601 83.0341H81V73.5077C81 73.2275 81.213 73 81.4776 73H127.522C127.786 73 128 73.2275 128 73.5077V83.0341H149.04V39.9659H128.122V48.9808C128.122 49.2483 127.907 49.4637 127.642 49.4637H81.3592C81.0933 49.4637 80.8792 49.2483 80.8792 48.9808V39.9659H59.9601V83.0341ZM81.3592 39H127.642H149.52C149.785 39 150 39.2164 150 39.483V83.517C150 83.7846 149.785 84 149.52 84H127.522H81.4776H59.48C59.2141 84 59 83.7846 59 83.517V39.483C59 39.2164 59.2141 39 59.48 39H81.3592ZM81.8393 39.9659V48.4978H127.162V39.9659H81.8393ZM82 83H127V74H82V83Z" fill="black"/></g></g></g><g id="Plant" transform="matrix(-1 0 0 1 333 219.679) scale(1 1)"><g id="Plant/Big Leaves"><g id="Big Leaves"><path id="Leaves" fill-rule="evenodd" clip-rule="evenodd" d="M130.586 328.98C130.581 329.09 130.577 329.2 130.572 329.309C130.577 329.2 130.581 329.09 130.586 328.98V328.98ZM130.626 327.519C130.624 327.647 130.621 327.775 130.619 327.903C130.621 327.776 130.624 327.647 130.626 327.519V327.519ZM130.504 330.506C130.5 330.566 130.498 330.626 130.493 330.685C130.498 330.626 130.5 330.566 130.504 330.506V330.506ZM109.823 289.46C109.588 289.317 109.353 289.172 109.113 289.03C109.353 289.172 109.588 289.317 109.823 289.46V289.46ZM111.656 290.628C111.425 290.475 111.193 290.323 110.959 290.17C111.193 290.323 111.425 290.475 111.656 290.628V290.628ZM113.367 291.821C113.154 291.666 112.936 291.512 112.718 291.359C112.936 291.512 113.154 291.666 113.367 291.821V291.821ZM114.97 293.039C114.792 292.897 114.605 292.757 114.423 292.617C114.605 292.757 114.792 292.897 114.97 293.039V293.039ZM116.473 294.285C116.395 294.217 116.311 294.151 116.232 294.084C116.311 294.151 116.395 294.217 116.473 294.285V294.285ZM118.278 295.952C118.144 295.822 118.017 295.69 117.881 295.562C118.017 295.69 118.144 295.822 118.278 295.952V295.952ZM107.811 288.29C107.597 288.171 107.39 288.051 107.174 287.934C107.39 288.051 107.597 288.171 107.811 288.29V288.29ZM120.905 298.746C120.753 298.567 120.598 298.389 120.441 298.211C120.598 298.389 120.753 298.567 120.905 298.746V298.746ZM122.034 300.124C121.894 299.944 121.751 299.766 121.607 299.588C121.751 299.766 121.894 299.944 122.034 300.124V300.124ZM123.074 301.513C122.955 301.346 122.83 301.181 122.708 301.015C122.83 301.181 122.955 301.346 123.074 301.513V301.513ZM124.031 302.915C123.961 302.807 123.884 302.701 123.814 302.593C123.884 302.701 123.961 302.807 124.031 302.915V302.915ZM125.104 304.677C125.039 304.565 124.978 304.452 124.913 304.339C124.978 304.452 125.039 304.565 125.104 304.677V304.677ZM125.981 306.289C125.894 306.119 125.808 305.948 125.718 305.779C125.808 305.948 125.894 306.119 125.981 306.289V306.289ZM126.716 307.792C126.631 307.606 126.545 307.421 126.456 307.237C126.545 307.421 126.631 307.606 126.716 307.792V307.792ZM127.365 309.273C127.288 309.087 127.209 308.902 127.129 308.716C127.209 308.902 127.288 309.087 127.365 309.273V309.273ZM127.941 310.748C127.879 310.578 127.812 310.407 127.747 310.237C127.812 310.407 127.879 310.577 127.941 310.748V310.748ZM128.454 312.223C128.416 312.104 128.372 311.985 128.332 311.865C128.372 311.985 128.416 312.104 128.454 312.223V312.223ZM128.947 313.861C128.934 313.816 128.924 313.77 128.911 313.725C128.924 313.77 128.934 313.816 128.947 313.861V313.861ZM129.404 315.655C129.37 315.507 129.338 315.359 129.301 315.21C129.338 315.359 129.37 315.507 129.404 315.655V315.655ZM129.739 317.21C129.706 317.042 129.674 316.874 129.638 316.705C129.674 316.874 129.706 317.042 129.739 317.21V317.21ZM130.008 318.715C129.981 318.546 129.953 318.377 129.924 318.209C129.953 318.377 129.981 318.546 130.008 318.715V318.715ZM130.224 320.196C130.205 320.044 130.182 319.892 130.162 319.741C130.182 319.892 130.205 320.044 130.224 320.196V320.196ZM130.391 321.663C130.382 321.56 130.369 321.458 130.358 321.356C130.369 321.458 130.382 321.56 130.391 321.663V321.663ZM130.601 324.899C130.597 324.808 130.596 324.718 130.592 324.627C130.596 324.718 130.597 324.808 130.601 324.899V324.899ZM119.674 297.372C119.517 297.205 119.363 297.037 119.202 296.872C119.363 297.037 119.516 297.205 119.674 297.372V297.372ZM130.631 326.451C130.63 326.325 130.63 326.199 130.629 326.072C130.63 326.199 130.63 326.325 130.631 326.451V326.451ZM180.423 256.357C180.359 249.907 173.386 245.845 167.809 249.085C157.198 255.251 150.36 263.618 146.116 272.861C146.117 272.86 146.117 272.858 146.117 272.857C146.631 233.379 137.679 185.236 99.5641 151.308C90.2581 143.024 75.5281 149.055 74.7761 161.492C73.2851 186.146 76.9921 228.495 104.599 286.663C104.779 286.73 104.959 286.795 105.134 286.882C101.086 284.893 96.3871 287.938 96.6451 292.443C97.3241 304.297 102.048 326.668 125.314 352.129C125.314 352.129 129 344.186 130.235 333.476C132.056 336.422 133.929 339.396 135.867 342.404C135.867 342.404 138.557 333.963 141.185 320.307C143.265 335.113 147.35 345.966 147.35 345.966C176.826 313.71 180.613 275.678 180.423 256.357V256.357Z" fill="#409B81"/><path id="Fill 3" fill-rule="evenodd" clip-rule="evenodd" d="M140.558 307.664C139.906 288.808 144.148 263.412 168.06 249.518C169.287 248.806 170.637 248.449 171.989 248.449C173.324 248.449 174.66 248.796 175.881 249.491C178.383 250.915 179.894 253.483 179.922 256.362C180.115 275.757 176.191 312.742 148.142 344.323C149.472 319.065 155.369 294.542 165.724 271.28C165.836 271.028 165.723 270.732 165.47 270.62C165.221 270.508 164.922 270.621 164.81 270.874C154.454 294.138 148.54 318.657 147.167 343.91C145.495 338.87 141.133 324.278 140.558 307.664M136.187 339.534C133.839 303.229 126.761 267.455 115.036 232.857L94.627 172.645C94.539 172.384 94.255 172.246 93.994 172.332C93.732 172.421 93.591 172.705 93.68 172.966L114.088 233.178C125.885 267.986 132.974 303.988 135.255 340.523C133.779 338.212 132.249 335.775 130.679 333.226C132.294 318.278 129.167 298.133 105.356 286.434C105.289 286.401 105.221 286.38 105.154 286.351C87.609 249.29 72.691 204.268 75.275 161.522C75.61 155.977 79 151.22 84.122 149.104C85.918 148.363 87.792 148.001 89.648 148.001C93.112 148.001 96.515 149.264 99.232 151.682C138.225 186.392 145.986 236.333 145.63 272.117C145.628 272.374 145.622 272.627 145.618 272.882C140.36 284.462 139.191 297.113 139.56 307.724C139.711 312.07 140.121 316.276 140.673 320.216C138.933 329.261 137.172 336.022 136.187 339.534M125.763 349.704C124.498 331.991 118.992 314.819 109.642 299.624C109.496 299.388 109.186 299.314 108.954 299.46C108.719 299.604 108.646 299.912 108.79 300.147C118.245 315.511 123.725 332.914 124.828 350.847C114.728 339.583 98.596 317.815 97.144 292.415C97.035 290.5 97.92 288.727 99.514 287.67C100.421 287.067 101.453 286.763 102.495 286.763C103.315 286.763 104.14 286.951 104.914 287.332C121.758 295.607 130.243 308.968 130.133 327.042C130.073 337.04 127.253 345.776 125.763 349.704M180.922 256.352C180.89 253.113 179.191 250.224 176.376 248.622C173.605 247.046 170.308 247.056 167.558 248.653C157.537 254.476 150.915 262.27 146.631 270.761C146.781 234.866 138.678 185.456 99.896 150.935C95.436 146.965 89.246 145.907 83.741 148.181C78.262 150.442 74.635 155.531 74.277 161.462C73.022 182.225 76.047 206.383 83.026 231.324C87.964 248.972 94.881 267.203 103.686 285.878C102.063 285.568 100.383 285.892 98.96 286.836C97.068 288.092 96.016 290.198 96.146 292.472C97.655 318.877 114.8 341.356 124.911 352.43C124.992 354.146 125.047 355.866 125.047 357.591V366.617C125.047 366.893 125.271 367.117 125.547 367.117C125.824 367.117 126.047 366.893 126.047 366.617V357.591C126.047 355.741 125.985 353.896 125.892 352.056C126.514 350.616 129.292 343.803 130.487 334.816C132.084 337.39 133.704 339.967 135.369 342.552C135.827 350.515 136.069 358.5 136.069 366.505C136.069 366.781 136.292 367.005 136.569 367.005C136.845 367.005 137.069 366.781 137.069 366.505C137.069 358.477 136.826 350.468 136.367 342.483C136.582 341.791 138.794 334.585 141.116 323.14C143.275 336.436 146.833 346.014 146.882 346.143C146.917 346.235 146.981 346.307 147.058 346.363C146.93 349.359 146.85 352.362 146.85 355.377V366.505C146.85 366.781 147.074 367.005 147.35 367.005C147.626 367.005 147.85 366.781 147.85 366.505V355.377C147.85 352.206 147.935 349.049 148.077 345.899C177.091 313.87 181.118 276.079 180.922 256.352" fill="black"/></g></g></g><path id="Search bar" fill-rule="evenodd" clip-rule="evenodd" d="M429.313 185.281C420.054 185.281 412.521 192.814 412.521 202.073C412.521 211.331 420.054 218.864 429.313 218.864H545.637C554.896 218.864 562.428 211.331 562.428 202.073C562.428 192.814 554.896 185.281 545.637 185.281H429.313ZM545.637 219.864H429.313C419.503 219.864 411.521 211.883 411.521 202.073C411.521 192.262 419.503 184.281 429.313 184.281H545.637C555.447 184.281 563.428 192.262 563.428 202.073C563.428 211.883 555.447 219.864 545.637 219.864ZM436.154 194.539C432.77 194.539 430.017 197.292 430.017 200.676C430.017 202.29 430.643 203.761 431.666 204.858C431.668 204.86 431.67 204.862 431.673 204.864C431.682 204.874 431.692 204.884 431.701 204.895C432.82 206.075 434.402 206.813 436.154 206.813C439.538 206.813 442.291 204.06 442.291 200.676C442.291 197.292 439.538 194.539 436.154 194.539ZM431.321 205.923C432.593 207.096 434.291 207.813 436.154 207.813C440.09 207.813 443.291 204.612 443.291 200.676C443.291 196.741 440.09 193.539 436.154 193.539C432.218 193.539 429.017 196.741 429.017 200.676C429.017 202.39 429.624 203.964 430.634 205.196L426.076 209.752C425.881 209.948 425.881 210.264 426.076 210.46C426.174 210.557 426.302 210.606 426.43 210.606C426.558 210.606 426.686 210.557 426.784 210.46L431.321 205.923Z" fill="black"/><path id="Fill 190" fill-rule="evenodd" clip-rule="evenodd" d="M423.752 259.002C423.453 259.002 423.149 259.032 422.842 259.093C420.976 259.464 419.758 260.558 419.223 262.342C418.696 264.099 419.098 265.671 420.418 267.016C421.765 268.39 423.13 269.748 424.496 271.105L425.873 272.476C426.014 272.617 426.131 272.716 426.243 272.789C426.869 273.191 427.702 273.075 428.271 272.505L430.222 270.548C431.382 269.383 432.542 268.219 433.706 267.059C434.654 266.114 435.127 265.001 435.149 263.656C435.125 262.465 434.738 261.46 433.968 260.584C432.328 258.719 429.519 258.467 427.576 260.012C427.211 260.3 426.955 260.302 426.594 260.026C425.706 259.344 424.753 259.002 423.752 259.002M427.06 274.028C426.588 274.028 426.118 273.898 425.701 273.629C425.528 273.517 425.358 273.376 425.166 273.184L423.79 271.814C422.422 270.454 421.054 269.093 419.704 267.716C418.132 266.115 417.635 264.157 418.265 262.055C418.906 259.919 420.421 258.555 422.647 258.113C424.232 257.798 425.72 258.143 427.076 259.137C429.492 257.371 432.778 257.717 434.719 259.924C435.641 260.972 436.122 262.224 436.149 263.646V263.663C436.125 265.262 435.54 266.644 434.412 267.767C433.249 268.927 432.09 270.09 430.931 271.253L428.979 273.212C428.442 273.75 427.749 274.028 427.06 274.028" fill="black"/><g id="Button" transform="translate(431.147 417.376) scale(1 1)"><g id="Button/Add to the Car"><g id="Add to de car button"><path id="Fill 148" fill-rule="evenodd" clip-rule="evenodd" d="M101.859 53.7334H23.0122C19.4152 53.7334 16.5002 50.8174 16.5002 47.2214V26.0124C16.5002 22.4154 19.4152 19.5004 23.0122 19.5004H101.859C105.455 19.5004 108.371 22.4154 108.371 26.0124V47.2214C108.371 50.8174 105.455 53.7334 101.859 53.7334" fill="#409B81"/><path id="Fill 150" fill-rule="evenodd" clip-rule="evenodd" d="M23.012 20C19.697 20 17 22.697 17 26.012V47.221C17 50.536 19.697 53.233 23.012 53.233H101.859C105.174 53.233 107.871 50.536 107.871 47.221V26.012C107.871 22.697 105.174 20 101.859 20H23.012ZM101.859 54.233H23.012C19.145 54.233 16 51.088 16 47.221V26.012C16 22.146 19.145 19 23.012 19H101.859C105.726 19 108.871 22.146 108.871 26.012V47.221C108.871 51.088 105.726 54.233 101.859 54.233V54.233Z" fill="black"/><path id="Combined Shape" fill-rule="evenodd" clip-rule="evenodd" d="M68.4411 29.1148L66.8324 29.1148L52.0071 29.1148C51.8371 29.1148 51.7311 29.2078 51.6841 29.2628C51.6361 29.3178 51.5591 29.4358 51.5841 29.6048L52.7121 37.2248C52.8541 38.1838 53.6931 38.9078 54.6631 38.9078H65.7851C66.7551 38.9078 67.5941 38.1838 67.7361 37.2248L68.8631 29.6048C68.8881 29.4358 68.8121 29.3188 68.7641 29.2628C68.7161 29.2078 68.6111 29.1148 68.4411 29.1148ZM66.8324 28.1148H68.4411H69.3484C69.8174 28.1148 70.2644 27.9128 70.5744 27.5618C71.0734 26.9948 71.7934 26.6698 72.5494 26.6698H73.7914C74.0674 26.6698 74.2914 26.8928 74.2914 27.1698C74.2914 27.4458 74.0674 27.6698 73.7914 27.6698H72.5494C72.0804 27.6698 71.6344 27.8708 71.3244 28.2228C70.9232 28.6777 70.3798 28.9768 69.7907 29.0773C69.8645 29.2913 69.8871 29.522 69.8531 29.7508L68.7251 37.3708C68.5111 38.8178 67.2471 39.9078 65.7851 39.9078H55.789C55.5986 40.5955 54.9674 41.1015 54.2198 41.1015H53.8188C53.4728 41.1015 53.1908 41.3825 53.1908 41.7285C53.1908 42.0745 53.4728 42.3565 53.8188 42.3565H56.5984L56.6004 42.3565L56.6024 42.3565H64.1409L64.1429 42.3565L64.1449 42.3565H67.7268C68.0028 42.3565 68.2268 42.5805 68.2268 42.8565C68.2268 43.1325 68.0028 43.3565 67.7268 43.3565H65.9333C66.132 43.6776 66.2469 44.0559 66.2469 44.4605C66.2469 45.6205 65.3029 46.5645 64.1429 46.5645C62.9829 46.5645 62.0389 45.6205 62.0389 44.4605C62.0389 44.0559 62.1537 43.6776 62.3525 43.3565H58.3908C58.5895 43.6776 58.7044 44.0559 58.7044 44.4605C58.7044 45.6205 57.7604 46.5645 56.6004 46.5645C55.4404 46.5645 54.4964 45.6205 54.4964 44.4605C54.4964 44.0559 54.6112 43.6776 54.81 43.3565H53.8188C52.9218 43.3565 52.1908 42.6265 52.1908 41.7285C52.1908 40.8315 52.9218 40.1015 53.8188 40.1015H54.2198C54.3975 40.1015 54.5584 40.0271 54.6728 39.9078H54.6631C53.2011 39.9078 51.9371 38.8178 51.7231 37.3708L50.5951 29.7508C50.5341 29.3398 50.6551 28.9238 50.9271 28.6098C51.1981 28.2948 51.5921 28.1148 52.0071 28.1148H66.8324ZM64.1429 43.3565L64.1449 43.3565C64.753 43.3576 65.2469 43.8522 65.2469 44.4605C65.2469 45.0685 64.7519 45.5645 64.1429 45.5645C63.5349 45.5645 63.0389 45.0685 63.0389 44.4605C63.0389 43.8522 63.5337 43.3576 64.1408 43.3565L64.1429 43.3565ZM56.5983 43.3565C55.9912 43.3576 55.4964 43.8522 55.4964 44.4605C55.4964 45.0685 55.9924 45.5645 56.6004 45.5645C57.2094 45.5645 57.7044 45.0685 57.7044 44.4605C57.7044 43.8522 57.2105 43.3576 56.6024 43.3565L56.6004 43.3565L56.5983 43.3565ZM59.7093 37.3965C59.7093 37.6725 59.9333 37.8965 60.2093 37.8965C60.4853 37.8965 60.7093 37.6725 60.7093 37.3965V34.5113H63.5945C63.8705 34.5113 64.0945 34.2873 64.0945 34.0113C64.0945 33.7353 63.8705 33.5113 63.5945 33.5113H60.7093V30.6255C60.7093 30.3495 60.4853 30.1255 60.2093 30.1255C59.9333 30.1255 59.7093 30.3495 59.7093 30.6255V33.5113H56.8235C56.5475 33.5113 56.3235 33.7353 56.3235 34.0113C56.3235 34.2873 56.5475 34.5113 56.8235 34.5113H59.7093V37.3965Z" fill="black"/></g></g></g><g id="Object" transform="translate(590.557 220.078) scale(1 1)"><g id="Object/Side Table"><g id="Side table"><path id="Side table_2" fill-rule="evenodd" clip-rule="evenodd" d="M96.5 233.239V277.52H104.13L107.022 367.237H110.816L113.708 277.52H172.753L175.645 367.237H179.439L182.33 277.52H189.961V233.239H96.5Z" fill="#8B4500"/><path id="Fill 2" fill-rule="evenodd" clip-rule="evenodd" d="M146.887 254.097C146.887 256.118 145.25 257.754 143.23 257.754C141.21 257.754 139.573 256.118 139.573 254.097C139.573 252.077 141.21 250.441 143.23 250.441C145.25 250.441 146.887 252.077 146.887 254.097" fill="#E96600"/><path id="Fill 4" fill-rule="evenodd" clip-rule="evenodd" d="M143.231 250.941C144.972 250.941 146.388 252.357 146.388 254.097C146.388 255.838 144.972 257.254 143.231 257.254C141.49 257.254 140.074 255.838 140.074 254.097C140.074 252.357 141.49 250.941 143.231 250.941V250.941ZM143.231 258.254C145.523 258.254 147.388 256.389 147.388 254.097C147.388 251.805 145.523 249.941 143.231 249.941C140.939 249.941 139.074 251.805 139.074 254.097C139.074 256.389 140.939 258.254 143.231 258.254V258.254ZM97 277.02H189.462V233.739H97V277.02ZM178.955 366.738H176.13L173.271 278.02H181.814L178.955 366.738ZM110.332 366.738H107.506L104.647 278.02H113.191L110.332 366.738ZM96 232.739V278.02H103.646L106.523 367.254L106.538 367.738H111.301L114.192 278.02H172.27L175.146 367.254L175.161 367.738H179.924L182.815 278.02H190.462V232.739H96Z" fill="black"/><path id="Frame" fill-rule="evenodd" clip-rule="evenodd" d="M129.194 233.239H163.82C164.414 233.239 164.94 232.854 165.12 232.29L164.845 233.239H177.543L170.56 213.51L177.879 188.245C178.132 187.372 177.477 186.5 176.568 186.5H141.941C141.334 186.5 140.799 186.902 140.631 187.485L127.882 231.495C127.63 232.367 128.285 233.239 129.194 233.239Z" fill="#FF5613"/><path id="Fill 11" fill-rule="evenodd" clip-rule="evenodd" d="M160.077 229.179H134.915C134.432 229.179 134.084 228.715 134.218 228.251L144.985 191.083C145.075 190.773 145.359 190.559 145.682 190.559H170.843C171.327 190.559 171.675 191.023 171.54 191.487L160.774 228.656C160.684 228.965 160.4 229.179 160.077 229.179" fill="#FCBD21"/><path id="Fill 13" fill-rule="evenodd" clip-rule="evenodd" d="M170.844 190.559H152.66C152.151 191.8 151.865 193.157 151.865 194.581C151.865 200.432 156.607 205.174 162.457 205.174C164.509 205.174 166.419 204.58 168.041 203.571L171.541 191.487C171.676 191.023 171.327 190.559 170.844 190.559" fill="#409B81"/><path id="Fill 15" fill-rule="evenodd" clip-rule="evenodd" d="M160.923 218.244C160.923 209.105 153.514 201.696 144.375 201.696C143.518 201.696 142.677 201.762 141.856 201.887L134.218 228.252C134.084 228.716 134.432 229.18 134.916 229.18H156.79C159.36 226.264 160.923 222.437 160.923 218.244" fill="#409B81"/><path id="Fill 17" fill-rule="evenodd" clip-rule="evenodd" d="M171.061 191.348L167.615 203.244C166.048 204.181 164.269 204.674 162.457 204.674C156.893 204.674 152.365 200.147 152.365 194.581C152.365 193.373 152.579 192.191 153.001 191.059H170.844C170.942 191.059 170.999 191.116 171.025 191.15C171.05 191.183 171.088 191.253 171.061 191.348V191.348ZM160.295 228.516C160.268 228.612 160.178 228.679 160.078 228.679H157.833C160.148 225.698 161.424 222.036 161.424 218.244C161.424 208.843 153.776 201.196 144.376 201.196C143.766 201.196 143.154 201.241 142.545 201.305L145.466 191.222C145.494 191.126 145.583 191.059 145.683 191.059H151.953C151.57 192.197 151.365 193.377 151.365 194.581C151.365 200.698 156.341 205.674 162.457 205.674C164.115 205.674 165.74 205.282 167.233 204.564L160.295 228.516ZM134.916 228.679C134.818 228.679 134.761 228.622 134.736 228.589C134.711 228.555 134.672 228.485 134.7 228.39L142.247 202.335C142.952 202.243 143.665 202.196 144.376 202.196C153.225 202.196 160.424 209.395 160.424 218.244C160.424 222.075 159.054 225.772 156.562 228.679H134.916ZM170.844 190.059H145.683C145.141 190.059 144.656 190.423 144.505 190.945L133.739 228.113C133.631 228.486 133.703 228.878 133.936 229.19C134.17 229.5 134.527 229.679 134.916 229.679H160.078C160.62 229.679 161.104 229.316 161.256 228.794L168.468 203.894L172.021 191.626C172.13 191.252 172.059 190.86 171.825 190.549C171.591 190.238 171.233 190.059 170.844 190.059V190.059ZM177.398 188.106L164.65 232.115C164.544 232.482 164.202 232.739 163.82 232.739H129.193C128.919 232.739 128.667 232.613 128.502 232.393C128.337 232.174 128.286 231.897 128.363 231.633L141.111 187.624C141.217 187.256 141.559 186.999 141.941 186.999H176.568C176.842 186.999 177.094 187.125 177.259 187.344C177.424 187.564 177.475 187.841 177.398 188.106V188.106ZM176.835 232.739H165.511L168.477 222.499L170.607 215.142L176.835 232.739ZM178.058 186.744C177.703 186.271 177.16 185.999 176.568 185.999H141.941C141.116 185.999 140.38 186.553 140.15 187.346L127.402 231.356C127.238 231.923 127.347 232.521 127.703 232.994C128.059 233.467 128.602 233.739 129.193 233.739H163.82C163.951 233.739 164.073 233.702 164.198 233.676L164.18 233.739H178.25L171.085 213.494L178.359 188.383C178.523 187.815 178.414 187.217 178.058 186.744V186.744Z" fill="black"/></g></g></g><g id="Master/Character/Standing" transform="translate(401.153 125.198) scale(1 1)"><g id="Master/Character/Standing"><g id="Lower Body Standing" transform="translate(32 185) scale(1 1)"><g id="Lower Body Standing/High Heels"><g id="High Heels"><path id="Skin" fill-rule="evenodd" clip-rule="evenodd" d="M218.056 211.169L230.875 237.326L243.783 252.874L233.742 259.022L228.103 257.122L227.606 262.779L202.213 278.325H169.851L170.208 276.872C171.804 270.371 177.66 265.821 184.354 265.881L187.871 265.912C188.844 265.921 189.801 265.66 190.636 265.159L192.122 264.268C193.607 263.377 194.561 261.814 194.675 260.085L195.08 253.929L182.312 229.126C177.487 219.753 180.765 208.244 189.805 202.821C199.85 196.794 212.901 200.65 218.056 211.169ZM137.963 219.166C140.992 212.549 147.601 208.305 154.879 208.305C168.123 208.305 177.126 221.751 172.08 233.996L161.826 258.884V278.326H149.852L146.61 274.512L142.874 278.326H87.5L87.688 277.803C90.085 271.131 95.874 266.256 102.857 265.029L109.95 263.782C113.588 263.142 116.973 261.493 119.718 259.022L137.963 219.166Z" fill="#fbefe3"/><path id="Fill 116" fill-rule="evenodd" clip-rule="evenodd" d="M170.488 277.825H202.071L227.129 262.484L227.604 257.078C227.617 256.926 227.7 256.788 227.828 256.704C227.956 256.62 228.115 256.599 228.261 256.649L233.679 258.473L243.029 252.749L230.489 237.645C230.464 237.615 230.443 237.581 230.426 237.546L217.606 211.389C215.211 206.501 210.842 202.813 205.622 201.27C200.402 199.728 194.731 200.449 190.062 203.249C181.275 208.521 178.066 219.787 182.756 228.897L195.524 253.7C195.565 253.781 195.584 253.871 195.578 253.962L195.173 260.118C195.049 262.01 194.004 263.721 192.378 264.697L190.892 265.588C189.978 266.137 188.905 266.404 187.866 266.412L184.349 266.381C177.844 266.295 172.24 270.686 170.692 276.992L170.488 277.825ZM202.213 278.825H169.85C169.696 278.825 169.551 278.754 169.457 278.634C169.362 278.512 169.328 278.355 169.365 278.206L169.721 276.753C171.381 269.995 177.397 265.341 184.358 265.381L187.875 265.412C188.769 265.434 189.622 265.185 190.378 264.731L191.863 263.839C193.208 263.033 194.072 261.617 194.175 260.053L194.571 254.034L181.867 229.355C176.937 219.777 180.31 207.934 189.547 202.392C194.455 199.448 200.418 198.689 205.905 200.311C211.394 201.933 215.986 205.81 218.504 210.949L231.297 237.053L244.167 252.555C244.26 252.667 244.3 252.813 244.276 252.956C244.252 253.099 244.167 253.225 244.044 253.301L234.003 259.448C233.877 259.526 233.723 259.544 233.582 259.495L228.544 257.799L228.103 262.823C228.09 262.98 228.002 263.122 227.866 263.205L202.474 278.751C202.395 278.8 202.305 278.825 202.213 278.825V278.825Z" fill="black"/><path id="Fill 121" fill-rule="evenodd" clip-rule="evenodd" d="M150.083 277.825H161.325V258.883C161.325 258.818 161.338 258.753 161.363 258.693L171.617 233.806C173.923 228.21 173.289 221.866 169.922 216.837C166.555 211.807 160.931 208.805 154.879 208.805C147.818 208.805 141.356 212.953 138.417 219.374L120.173 259.23C120.144 259.292 120.103 259.348 120.052 259.394C117.234 261.93 113.771 263.618 110.036 264.274L102.943 265.521C96.2054 266.705 90.5744 271.413 88.2114 277.825H142.664L146.253 274.161C146.351 274.061 146.489 274.001 146.628 274.012C146.768 274.017 146.9 274.081 146.991 274.188L150.083 277.825ZM161.825 278.825H149.852C149.705 278.825 149.566 278.761 149.471 278.649L146.584 275.252L143.231 278.675C143.137 278.771 143.008 278.825 142.874 278.825H87.5004C87.3374 278.825 87.1844 278.746 87.0914 278.613C86.9974 278.48 86.9744 278.31 87.0294 278.156L87.2174 277.634C89.6694 270.81 95.6284 265.791 102.77 264.536L109.864 263.289C113.379 262.671 116.642 261.092 119.307 258.719L137.508 218.958C140.609 212.183 147.427 207.805 154.879 207.805C161.265 207.805 167.2 210.973 170.753 216.28C174.306 221.587 174.975 228.281 172.542 234.187L162.325 258.982V278.325C162.325 278.602 162.102 278.825 161.825 278.825V278.825Z" fill="black"/><path id="Shoes" fill-rule="evenodd" clip-rule="evenodd" d="M169.851 278.325L170.207 276.872C171.803 270.371 177.66 265.821 184.353 265.88L187.871 265.912C187.871 268.164 189.697 269.991 191.95 269.991H194.363C195.107 269.991 195.837 269.788 196.474 269.402L237.104 244.829L243.783 252.874L233.742 259.021L228.102 257.122L227.605 262.778L202.213 278.325H169.851ZM107.641 264.33C108.634 266.663 110.681 268.382 113.15 268.958C113.742 269.097 114.349 269.166 114.957 269.166H161.826V278.325H149.852L146.61 274.511L142.874 278.325H87.5L87.688 277.802C90.085 271.13 95.874 266.255 102.857 265.028L107.585 264.197L107.641 264.33Z" fill="#FCBD21"/><path id="Fill 125" fill-rule="evenodd" clip-rule="evenodd" d="M170.488 277.825H202.071L227.129 262.484L227.604 257.078C227.617 256.926 227.7 256.788 227.828 256.704C227.956 256.62 228.115 256.599 228.261 256.649L233.679 258.473L243.029 252.749L236.994 245.48L196.733 269.83C196.018 270.263 195.198 270.492 194.363 270.492H191.95C189.592 270.492 187.645 268.7 187.397 266.408L184.349 266.381C177.844 266.295 172.24 270.686 170.692 276.992H170.693L170.488 277.825ZM202.213 278.825H169.85C169.696 278.825 169.551 278.754 169.457 278.634C169.362 278.512 169.328 278.355 169.365 278.206L169.721 276.753C171.381 269.995 177.397 265.341 184.358 265.381L187.875 265.412C188.149 265.414 188.37 265.637 188.37 265.912C188.37 267.886 189.976 269.492 191.95 269.492H194.363C195.016 269.492 195.656 269.313 196.215 268.975L236.845 244.402C237.057 244.272 237.33 244.32 237.488 244.51L244.167 252.555C244.26 252.667 244.3 252.813 244.276 252.956C244.252 253.099 244.167 253.225 244.044 253.301L234.003 259.448C233.877 259.526 233.723 259.544 233.582 259.495L228.544 257.799L228.103 262.823C228.09 262.98 228.002 263.122 227.866 263.205L202.474 278.751C202.395 278.8 202.305 278.825 202.213 278.825V278.825Z" fill="black"/><path id="Fill 130" fill-rule="evenodd" clip-rule="evenodd" d="M150.083 277.825H161.325V269.666H114.956C114.309 269.666 113.663 269.592 113.036 269.445C110.503 268.854 108.371 267.111 107.284 264.758L102.942 265.521C96.2054 266.704 90.5744 271.413 88.2114 277.825H142.664L146.253 274.161C146.351 274.06 146.489 274.001 146.627 274.012C146.768 274.016 146.9 274.08 146.991 274.187L150.083 277.825ZM161.825 278.825H149.852C149.705 278.825 149.565 278.761 149.471 278.649L146.583 275.252L143.23 278.675C143.137 278.771 143.008 278.825 142.874 278.825H87.5004C87.3374 278.825 87.1844 278.746 87.0914 278.613C86.9974 278.48 86.9744 278.309 87.0294 278.156L87.2164 277.634C89.6684 270.809 95.6284 265.791 102.77 264.535L107.498 263.704C107.726 263.665 107.953 263.787 108.044 264.001L108.101 264.134C109.028 266.312 110.958 267.933 113.263 268.471C113.815 268.601 114.385 268.666 114.956 268.666H161.825C162.102 268.666 162.325 268.89 162.325 269.166V278.325C162.325 278.601 162.102 278.825 161.825 278.825V278.825Z" fill="black"/><path id="Pants" fill-rule="evenodd" clip-rule="evenodd" d="M224.364 77.4998H142.426V107.815C142.426 107.815 140.892 130.524 135.061 139.424C129.231 148.324 139.051 158.758 140.585 163.975C142.119 169.191 143.654 174.715 143.654 174.715C143.654 174.715 138.437 181.774 135.061 194.663C131.686 207.552 124.663 215.224 124.663 215.224C124.663 215.224 160.225 237.012 205.03 240.388C205.03 240.388 204.614 222.896 206.817 218.292L231.115 205.404C231.115 205.404 225.898 193.435 216.692 189.446C207.485 185.457 209.94 179.933 209.94 179.933C209.94 179.933 224.364 167.657 221.909 150.165C219.454 132.673 221.295 135.128 224.671 121.932C228.046 108.736 222.364 77.4998 222.364 77.4998" fill="#FF5613"/><path id="Fill 134" fill-rule="evenodd" clip-rule="evenodd" d="M204.52 239.847C204.468 236.777 204.335 222.322 206.366 218.076C206.412 217.98 206.488 217.901 206.583 217.85L230.462 205.184C229.44 203.047 224.446 193.35 216.493 189.905C212.839 188.321 210.513 186.305 209.579 183.911C208.677 181.596 209.451 179.805 209.484 179.729C209.514 179.661 209.56 179.6 209.617 179.552C209.759 179.43 223.802 167.243 221.414 150.234C219.547 136.929 220.171 134.982 222.025 129.202C222.62 127.346 223.361 125.037 224.187 121.807C227.284 109.7 222.346 81.847 221.918 78H142.927V107.815C142.863 108.782 141.315 130.791 135.48 139.698C131.363 145.983 135.487 153.277 138.498 158.603C139.649 160.638 140.642 162.395 141.065 163.833C142.583 168.994 144.121 174.526 144.137 174.581C144.178 174.729 144.148 174.889 144.057 175.012C144.005 175.082 138.854 182.157 135.546 194.789C132.64 205.882 126.977 213.236 125.43 215.097C129.909 217.717 163.467 236.609 204.52 239.847ZM204.993 240.887C160.581 237.54 124.759 215.868 124.402 215.65C124.275 215.572 124.189 215.441 124.168 215.293C124.147 215.145 124.194 214.996 124.294 214.886C124.364 214.81 131.276 207.144 134.578 194.536C137.628 182.892 142.241 175.875 143.109 174.621C142.804 173.525 141.447 168.675 140.106 164.116C139.715 162.787 138.748 161.076 137.628 159.095C134.49 153.545 130.192 145.944 134.643 139.15C140.335 130.462 141.913 108.007 141.928 107.782L141.927 77.5C141.927 77.223 142.151 77 142.427 77H222.365C222.618 77 222.831 77.19 222.861 77.441C223.012 78.721 228.515 108.921 225.156 122.055C224.322 125.314 223.576 127.639 222.977 129.507C221.127 135.275 220.569 137.016 222.405 150.096C224.763 166.898 211.629 179.096 210.362 180.228C210.098 180.953 208.835 185.496 216.891 188.987C226.172 193.008 231.358 204.708 231.574 205.204C231.679 205.443 231.581 205.723 231.35 205.846L207.201 218.655C205.15 223.318 205.526 240.204 205.531 240.376C205.534 240.517 205.477 240.653 205.375 240.75C205.282 240.839 205.158 240.888 205.031 240.888C205.018 240.888 205.006 240.888 204.993 240.887Z" fill="black"/><path id="Fill 136" fill-rule="evenodd" clip-rule="evenodd" d="M206.817 218.792C206.769 218.792 206.719 218.785 206.671 218.77C206.406 218.689 206.258 218.409 206.339 218.146C210.662 204.059 208.211 195.727 206.894 191.25C206.663 190.466 206.464 189.79 206.329 189.193C205.368 184.94 209.378 179.836 209.549 179.621C209.721 179.404 210.037 179.371 210.252 179.541C210.468 179.712 210.504 180.027 210.332 180.243C210.293 180.292 206.449 185.189 207.305 188.973C207.433 189.538 207.628 190.201 207.853 190.968C209.199 195.545 211.706 204.065 207.295 218.438C207.229 218.654 207.031 218.792 206.817 218.792" fill="black"/><path id="Fill 138" fill-rule="evenodd" clip-rule="evenodd" d="M143.654 175.215C143.463 175.215 143.28 175.105 143.197 174.919C143.085 174.667 143.197 174.371 143.45 174.258C143.565 174.207 154.977 169.002 157.194 158.838L157.316 158.276C159.53 148.114 160.359 144.312 167.414 137.433C174.925 130.111 179.202 119.568 180.546 114.493C180.617 114.226 180.891 114.068 181.157 114.138C181.424 114.209 181.583 114.482 181.512 114.749C180.143 119.923 175.779 130.674 168.112 138.149C161.272 144.819 160.461 148.541 158.293 158.489L158.17 159.05C155.844 169.715 144.345 174.954 143.857 175.172C143.791 175.201 143.722 175.215 143.654 175.215" fill="black"/></g></g></g><g id="Head" transform="translate(193 148) scale(1 1)"><g id="Head/Relax"><path id="Path 2" fill-rule="evenodd" clip-rule="evenodd" d="M12.5 43.7363C12.5 43.7363 16.0343 41.1592 15.4058 30.5163C15.4058 30.5163 20.9953 33.4358 27.0934 28.4994L28.5 43.6134C28.5 43.6134 24.2721 48.9732 19.8389 48.4534C15.4058 47.9337 12.5 43.7363 12.5 43.7363Z" fill="#fbefe3"/><path id="Path 2 Copy" fill-rule="evenodd" clip-rule="evenodd" d="M15.6185 29.1575C19.1685 31.0897 22.873 30.4235 26.799 27.1117C27.1106 26.8489 27.5511 27.076 27.5907 27.5201L28.9973 43.2699C29.0117 43.4301 28.9677 43.5899 28.876 43.711C25.9592 47.5642 22.9235 49.332 19.7865 48.9487C16.6923 48.5707 14.1229 46.8497 12.1037 43.8105C11.9264 43.5435 11.9825 43.1583 12.2257 42.9735C14.3851 41.3327 15.3152 36.9233 14.9069 29.7193C14.882 29.2794 15.274 28.9699 15.6185 29.1575ZM27.8541 43.348L26.5503 29L26.2853 29.199C22.7217 31.8029 19.2465 32.4147 15.9004 31.0061L15.7525 30.9417L15.7761 31.5369C15.9754 37.6673 15.094 41.732 13.0614 43.7146L13 43.7713L13.1374 43.9575C14.8463 46.2141 16.9214 47.5258 19.3801 47.9095L19.7177 47.956C22.5083 48.2909 25.2631 46.7152 28 43.1638L27.8541 43.348Z" fill="black"/><g id="Relax"><path id="Skin" fill-rule="evenodd" clip-rule="evenodd" d="M19.7155 31.4076C12.9695 31.4076 7.50049 25.6076 7.50049 18.4536C7.50049 11.2996 12.9695 5.49963 19.7155 5.49963C26.4605 5.49963 31.9295 11.2996 31.9295 18.4536C31.9295 25.6076 26.4605 31.4076 19.7155 31.4076Z" fill="#fbefe3"/><path id="Fill 119" fill-rule="evenodd" clip-rule="evenodd" d="M19.715 6C13.256 6 8 11.586 8 18.454C8 25.321 13.256 30.907 19.715 30.907C26.174 30.907 31.429 25.321 31.429 18.454C31.429 11.586 26.174 6 19.715 6M19.715 31.907C12.704 31.907 7 25.872 7 18.454C7 11.035 12.704 5 19.715 5C26.726 5 32.429 11.035 32.429 18.454C32.429 25.872 26.726 31.907 19.715 31.907" fill="black"/><path id="Fill 125" fill-rule="evenodd" clip-rule="evenodd" d="M16.2932 22.6103C16.2732 22.6103 16.2532 22.6093 16.2322 22.6073L14.1902 22.3593C14.0462 22.3413 13.9182 22.2633 13.8362 22.1433C13.7552 22.0243 13.7302 21.8753 13.7672 21.7353L14.3852 19.3833C14.4562 19.1173 14.7312 18.9613 14.9962 19.0273C15.2632 19.0983 15.4222 19.3713 15.3522 19.6383L14.8792 21.4353L16.3532 21.6133C16.6272 21.6473 16.8222 21.8963 16.7892 22.1703C16.7582 22.4243 16.5432 22.6103 16.2932 22.6103" fill="black"/><path id="Fill 127" fill-rule="evenodd" clip-rule="evenodd" d="M19.9589 16.7226C19.4339 16.7226 18.7539 16.6316 18.0459 16.2916C17.7969 16.1726 17.6919 15.8746 17.8119 15.6246C17.9309 15.3766 18.2289 15.2696 18.4789 15.3906C19.6129 15.9336 20.6709 15.6446 20.6819 15.6416C20.9449 15.5706 21.2229 15.7196 21.2989 15.9846C21.3759 16.2486 21.2259 16.5246 20.9609 16.6016C20.9309 16.6116 20.5399 16.7226 19.9589 16.7226" fill="black"/><path id="Fill 129" fill-rule="evenodd" clip-rule="evenodd" d="M10.6998 16.9062C10.5728 16.9062 10.4458 16.8582 10.3488 16.7622C10.1518 16.5682 10.1498 16.2512 10.3438 16.0552C11.5068 14.8772 12.9228 14.7812 12.9828 14.7772C13.2578 14.7712 13.4938 14.9712 13.5108 15.2472C13.5268 15.5222 13.3178 15.7582 13.0438 15.7752C13.0258 15.7772 11.9368 15.8642 11.0558 16.7572C10.9578 16.8562 10.8288 16.9062 10.6998 16.9062" fill="black"/><path id="Fill 131" fill-rule="evenodd" clip-rule="evenodd" d="M15.8408 26.9321C14.9598 26.9321 14.3598 26.1921 14.2938 26.1061C14.1238 25.8891 14.1638 25.5741 14.3828 25.4051C14.5998 25.2361 14.9138 25.2761 15.0818 25.4921C15.1828 25.6181 15.5378 25.9551 15.8558 25.9321C16.1038 25.9261 16.3608 25.7391 16.6178 25.3771C16.7778 25.1521 17.0898 25.1001 17.3158 25.2601C17.5408 25.4201 17.5928 25.7331 17.4328 25.9571C16.9808 26.5921 16.4558 26.9201 15.8728 26.9321H15.8408Z" fill="black"/><path id="Fill 265" fill-rule="evenodd" clip-rule="evenodd" d="M19.6171 20.9062C18.9541 20.9062 18.3621 20.6222 18.0401 20.3772C17.8201 20.2102 17.7771 19.8962 17.9441 19.6772C18.1111 19.4582 18.4231 19.4132 18.6431 19.5792C18.7451 19.6552 19.6321 20.2712 20.4141 19.5992C20.6231 19.4202 20.9391 19.4432 21.1191 19.6532C21.2991 19.8632 21.2751 20.1782 21.0651 20.3582C20.5951 20.7622 20.0881 20.9062 19.6171 20.9062" fill="black"/><path id="Fill 267" fill-rule="evenodd" clip-rule="evenodd" d="M12.245 20.9062C11.582 20.9062 10.99 20.6222 10.668 20.3772C10.448 20.2102 10.405 19.8962 10.572 19.6772C10.739 19.4582 11.051 19.4132 11.271 19.5792C11.373 19.6552 12.26 20.2712 13.042 19.5992C13.251 19.4202 13.567 19.4432 13.747 19.6532C13.927 19.8632 13.903 20.1782 13.693 20.3582C13.223 20.7622 12.716 20.9062 12.245 20.9062" fill="black"/></g></g></g><g id="Accesories" transform="translate(193 148) scale(39 49)"><g id="Accesories/No Accesory" stroke="none" stroke-width="1" fill="none" fill-rule="evenodd" fill-opacity="0"/></g><g id="Hair" transform="translate(143 115) scale(1 1)"><g id="Hair/Pompadour"><g id="Pompadour"><path id="Fill 1" fill-rule="evenodd" clip-rule="evenodd" d="M68.9923 43.8686C68.9923 43.8686 59.0303 48.9426 44.7753 43.1436C30.5203 37.3446 29.1913 20.4316 53.1113 25.3856C77.0303 30.3386 74.6543 35.8956 74.6543 35.8956C74.6543 35.8956 83.2323 29.7346 86.6143 41.2106C89.9963 52.6866 83.1263 63.5286 76.1123 62.3356C76.1123 62.3356 73.5673 57.3866 77.7953 53.2856C77.7953 53.2856 73.2053 52.0826 75.5003 45.9216C75.5003 45.9216 67.3833 48.2636 68.9923 43.8686" fill="#040226"/><path id="Fill 3" fill-rule="evenodd" clip-rule="evenodd" d="M76.4526 61.8807C78.7246 62.1687 81.0376 61.1187 82.9976 58.9117C85.8766 55.6707 88.4266 49.1267 86.1346 41.3517C85.1126 37.8837 83.5176 35.7557 81.3956 35.0267C78.2686 33.9547 74.9786 36.2777 74.9456 36.3017C74.7646 36.4317 74.5166 36.4257 74.3416 36.2857C74.1666 36.1447 74.1066 35.9047 74.1946 35.6987C74.1956 35.6937 74.3516 35.2287 73.9016 34.4307C72.8936 32.6417 68.8386 29.1527 53.0096 25.8747C38.5566 22.8817 35.7556 28.1507 35.2426 29.8367C34.0596 33.7247 37.3726 39.5917 44.9636 42.6797C58.8196 48.3167 68.6676 43.4717 68.7656 43.4227C68.9496 43.3307 69.1706 43.3587 69.3246 43.4947C69.4776 43.6307 69.5326 43.8477 69.4616 44.0407C69.2096 44.7297 69.2226 45.2307 69.5016 45.5287C70.3566 46.4477 73.5496 45.9627 75.3616 45.4417C75.5436 45.3897 75.7386 45.4437 75.8666 45.5817C75.9946 45.7207 76.0346 45.9197 75.9686 46.0957C75.2126 48.1257 75.1556 49.7827 75.7996 51.0217C76.5266 52.4217 77.9086 52.7977 77.9216 52.8007C78.0966 52.8467 78.2326 52.9837 78.2786 53.1577C78.3246 53.3327 78.2726 53.5187 78.1436 53.6437C74.6886 56.9947 76.0326 60.8987 76.4526 61.8807M77.1946 62.9277C76.8066 62.9277 76.4166 62.8947 76.0276 62.8287C75.8726 62.8017 75.7396 62.7047 75.6666 62.5647C75.6406 62.5137 73.2186 57.6657 76.9296 53.4687C76.3196 53.1537 75.4676 52.5537 74.9116 51.4827C74.2346 50.1777 74.1766 48.5497 74.7366 46.6317C73.1406 46.9947 69.9776 47.5067 68.7696 46.2117C68.4056 45.8197 68.2436 45.3207 68.2866 44.7217C65.4656 45.8347 56.5646 48.4787 44.5866 43.6067C37.3126 40.6477 32.7876 34.4707 34.2856 29.5457C35.8216 24.4977 42.8966 22.7597 53.2126 24.8957C68.8186 28.1277 73.5866 31.6627 74.8386 34.0607C75.0196 34.4077 75.1206 34.7207 75.1726 34.9907C76.4596 34.2847 79.0856 33.1777 81.7206 34.0817C84.1666 34.9217 85.9746 37.2727 87.0936 41.0697C89.0756 47.7917 87.7606 55.0557 83.7456 59.5757C81.8006 61.7657 79.5116 62.9277 77.1946 62.9277" fill="black"/></g></g></g><g id="Upper Body" transform="translate(58 77) scale(1 1)"><g id="Upper Body/Box Close"><g id="Box Close"><path id="Fill 1" fill-rule="evenodd" clip-rule="evenodd" d="M83.125 126.691L69.149 125.749L80.437 125.092C82.093 124.986 83.382 123.612 83.382 121.953C83.382 120.247 82.021 118.852 80.316 118.809L66.701 118.464C66.701 118.464 68.628 115.053 71.182 113.362C72.39 112.563 73.06 111.166 72.818 109.737L72.777 109.492C72.364 107.051 69.639 105.736 67.499 106.981C63.376 109.378 55.5 115.934 55.5 125.854C55.5 141.584 62.465 150.875 69.974 150.875C74.146 150.875 76.692 150.468 78.189 150.067C79.33 149.761 80.109 148.71 80.109 147.528C80.109 146.3 79.267 145.235 78.071 144.96C75.383 144.34 68.918 144.54 69.255 141.479L79.874 142.02C81.778 142.127 83.382 140.612 83.382 138.704C83.382 136.987 82.073 135.553 80.363 135.397L69.624 134.511L83.241 133.137C84.883 132.958 86.126 131.571 86.126 129.92C86.126 128.223 84.817 126.815 83.125 126.691M221.295 151.765H194.074C194.074 151.765 204.088 168.124 194.102 173.761C184.115 179.399 138.987 164.49 138.987 164.49C138.987 164.49 126.745 160.463 125.779 165.618C125.672 166.187 125.675 166.697 125.765 167.155C125.765 167.155 122.114 166.322 120.362 164.148H103.933C103.933 164.148 101.094 171.698 127.611 179.007C127.611 179.007 137.335 182.208 141.443 184.383C145.55 186.557 191.295 208.262 214.369 191.228C237.443 174.195 221.295 151.765 221.295 151.765" fill="#fbefe3"/><path id="Fill 3" fill-rule="evenodd" clip-rule="evenodd" d="M70.249 114.074C69.944 114.337 69.652 114.617 69.375 114.905V118.532L80.316 118.808C82.022 118.852 83.382 120.247 83.382 121.953C83.382 123.612 82.093 124.986 80.437 125.092L69.375 125.735V125.763L83.125 126.691C84.817 126.814 86.127 128.223 86.127 129.919C86.127 131.571 84.884 132.957 83.242 133.136L69.625 134.511L80.363 135.396C82.073 135.553 83.382 136.987 83.382 138.703C83.382 140.612 81.779 142.127 79.874 142.019L69.375 141.485V142.328C70.244 144.5 75.664 144.405 78.072 144.96C79.268 145.235 80.109 146.3 80.109 147.528C80.109 148.709 79.331 149.761 78.189 150.067C76.692 150.468 74.146 150.874 69.975 150.874C69.774 150.874 69.575 150.841 69.375 150.828V164.49H138.315V114.074H70.249Z" fill="#FCBD21"/><path id="Fill 5" fill-rule="evenodd" clip-rule="evenodd" d="M192.752 151.765H225.886L216.315 137.807C205.369 121.842 187.256 112.3 167.898 112.3H163.201C161.939 114.957 158.81 116.843 155.14 116.843C151.471 116.843 148.342 114.957 147.08 112.3L137.548 114.074H138.315V164.285C138.737 164.408 138.987 164.49 138.987 164.49C138.987 164.49 184.116 179.399 194.102 173.761L190.578 147.416L192.752 151.765ZM125.779 165.618C125.862 165.175 126.033 164.805 126.267 164.49H120.668C122.504 166.409 125.766 167.155 125.766 167.155C125.676 166.697 125.672 166.187 125.779 165.618V165.618ZM127.611 179.007C122.649 177.639 118.716 176.263 115.599 174.93L113.779 185.591H143.922C142.713 185.028 141.86 184.603 141.443 184.383C137.336 182.208 127.611 179.007 127.611 179.007V179.007Z" fill="#4B69FD"/><path id="Fill 7" fill-rule="evenodd" clip-rule="evenodd" d="M152.26 116.435L155.139 126.936L158.019 116.435C158.019 116.435 155.227 117.384 152.26 116.435" fill="#FBEFE3"/><g id="Group 11"><mask id="mask0c371e3e7-e798-4571-bdca-8abb1b24d1ff" mask-type="alpha" maskUnits="userSpaceOnUse" x="103" y="151" width="125" height="48" fill="#ffffff"><path id="Clip 10" fill-rule="evenodd" clip-rule="evenodd" d="M103.342 151.265H227.231V198.169H103.342V151.265Z" fill="#ffffff"/></mask><g mask="url(#mask0c371e3e7-e798-4571-bdca-8abb1b24d1ff)"><path id="Fill 9" fill-rule="evenodd" clip-rule="evenodd" d="M221.701 151.473C221.607 151.342 221.456 151.265 221.295 151.265H194.074C193.893 151.265 193.726 151.363 193.638 151.52C193.549 151.679 193.553 151.871 193.647 152.026C193.706 152.121 199.451 161.626 197.7 168.371C197.139 170.536 195.845 172.203 193.856 173.326C184.175 178.792 139.593 164.163 139.143 164.015C139.128 164.01 139.077 163.994 139.036 163.981C138.469 164.259 137.808 164.429 137.056 164.461C138.11 164.732 138.806 164.957 138.83 164.965C140.681 165.577 184.284 179.878 194.348 174.197C196.583 172.935 198.036 171.059 198.669 168.62C200.246 162.537 196.31 154.722 194.941 152.265H221.035C222.684 154.676 235.566 174.958 214.072 190.826C190.336 208.348 142.153 184.192 141.677 183.941C137.579 181.771 128.166 178.663 127.743 178.525C110.834 173.864 106.165 169.122 104.887 166.71C104.375 165.745 104.321 165.033 104.347 164.648H108.932C108.93 164.729 108.916 164.802 108.928 164.895C109.105 166.186 110.887 167.671 114.223 169.308C120.708 172.491 128.775 174.931 128.856 174.955C128.904 174.97 128.952 174.976 129 174.976C129.215 174.976 129.414 174.837 129.479 174.62C129.558 174.356 129.409 174.077 129.144 173.997C129.064 173.973 121.073 171.556 114.663 168.41C110.655 166.443 110.016 165.234 109.927 164.806C109.913 164.735 109.92 164.692 109.925 164.648H120.13C121.731 166.47 124.484 167.33 125.37 167.57C126.443 171.283 132.576 171.583 132.822 171.592L137.413 171.994C137.428 171.996 137.442 171.996 137.457 171.996C137.713 171.996 137.932 171.8 137.954 171.54C137.979 171.265 137.775 171.022 137.5 170.998L132.886 170.595C132.826 170.592 126.899 170.318 126.256 167.058C126.175 166.646 126.18 166.192 126.27 165.71C126.359 165.237 126.569 164.852 126.891 164.536C126.611 164.58 126.32 164.61 126.01 164.61C125.878 164.61 125.753 164.599 125.627 164.591C125.475 164.878 125.351 165.183 125.287 165.525C125.226 165.851 125.196 166.168 125.198 166.476C124.099 166.131 121.933 165.301 120.752 163.834C120.657 163.716 120.514 163.648 120.362 163.648H103.933C103.725 163.648 103.538 163.777 103.465 163.972C103.417 164.098 103.026 165.263 103.95 167.077C105.552 170.223 110.935 174.929 127.454 179.482C127.551 179.514 137.186 182.694 141.209 184.825C141.562 185.011 167.814 198.169 191.354 198.169C199.951 198.168 208.187 196.413 214.666 191.63C237.869 174.502 221.865 151.701 221.701 151.473" fill="black"/></g></g><mask id="mask1c371e3e7-e798-4571-bdca-8abb1b24d1ff" mask-type="alpha" maskUnits="userSpaceOnUse" x="55" y="105" width="173" height="94" fill="#ffffff"><path id="Clip 13" fill-rule="evenodd" clip-rule="evenodd" d="M55 198.169H227.232V106H55V198.169Z" fill="#ffffff"/></mask><g mask="url(#mask1c371e3e7-e798-4571-bdca-8abb1b24d1ff)"><path id="Fill 12" fill-rule="evenodd" clip-rule="evenodd" d="M86.127 164.148H121.563V156.919H86.127V164.148Z" fill="#EFF2F7"/><path id="Fill 14" fill-rule="evenodd" clip-rule="evenodd" d="M84.9199 121.302H120.356V114.074H84.9199V121.302Z" fill="#EFF2F7"/><path id="Fill 15" fill-rule="evenodd" clip-rule="evenodd" d="M69.255 107.002C68.736 107.002 68.22 107.14 67.751 107.413C62.33 110.565 56 117.286 56 125.854C56 137.741 60.898 150.375 69.974 150.375C74.217 150.375 76.713 149.945 78.059 149.584C78.972 149.34 79.609 148.494 79.609 147.528C79.609 146.526 78.93 145.671 77.959 145.447C77.347 145.306 76.498 145.206 75.599 145.099C72.413 144.721 68.447 144.251 68.757 141.424C68.786 141.161 69.016 140.964 69.28 140.979L79.899 141.52C80.685 141.573 81.429 141.293 81.998 140.754C82.568 140.215 82.881 139.487 82.881 138.704C82.881 137.236 81.779 136.028 80.317 135.895L69.583 135.009C69.326 134.988 69.127 134.774 69.124 134.515C69.122 134.257 69.317 134.039 69.574 134.013L83.191 132.639C84.578 132.488 85.626 131.318 85.626 129.919C85.626 128.493 84.512 127.294 83.088 127.189L69.115 126.248C68.852 126.23 68.648 126.01 68.649 125.746C68.65 125.482 68.857 125.265 69.12 125.25L80.408 124.593C81.794 124.504 82.881 123.345 82.881 121.953C82.881 120.507 81.749 119.345 80.303 119.309L66.689 118.964C66.513 118.96 66.353 118.863 66.266 118.71C66.18 118.558 66.18 118.371 66.266 118.218C66.347 118.074 68.282 114.683 70.906 112.945C71.97 112.241 72.527 111.014 72.325 109.82L72.284 109.575C72.115 108.578 71.466 107.725 70.548 107.295C70.131 107.099 69.692 107.002 69.255 107.002M69.974 151.375C62.533 151.375 55 142.608 55 125.854C55 114.258 65.203 107.738 67.248 106.548C68.401 105.877 69.758 105.82 70.973 106.389C72.188 106.959 73.046 108.087 73.269 109.409V109.409L73.311 109.654C73.579 111.237 72.851 112.856 71.458 113.779C69.732 114.922 68.284 116.918 67.586 117.986L80.328 118.309C82.321 118.359 83.881 119.96 83.881 121.953C83.881 123.871 82.382 125.469 80.469 125.591L77.129 125.786L83.159 126.192C85.104 126.334 86.626 127.971 86.626 129.919C86.626 131.83 85.194 133.426 83.295 133.634L75.1 134.461L80.403 134.898C82.388 135.08 83.881 136.715 83.881 138.704C83.881 139.765 83.457 140.752 82.685 141.481C81.913 142.21 80.903 142.579 79.845 142.519L69.784 142.006C70.173 143.449 73.222 143.81 75.717 144.106C76.643 144.216 77.518 144.319 78.183 144.473C79.611 144.802 80.609 146.058 80.609 147.528C80.609 148.946 79.667 150.189 78.318 150.55C76.275 151.097 73.467 151.375 69.974 151.375" fill="black"/><path id="Fill 16" fill-rule="evenodd" clip-rule="evenodd" d="M191.342 149.445H223.953V148.445H191.342V149.445Z" fill="black"/><path id="Fill 17" fill-rule="evenodd" clip-rule="evenodd" d="M142.864 185.091H114.371L116.072 175.125C115.749 174.989 115.434 174.855 115.127 174.721L113.286 185.507C113.261 185.652 113.302 185.801 113.397 185.913C113.492 186.026 113.632 186.091 113.779 186.091H145.011C144.166 185.708 143.446 185.371 142.864 185.091" fill="black"/><path id="Fill 18" fill-rule="evenodd" clip-rule="evenodd" d="M147.395 113.772C147.461 113.859 147.535 113.94 147.605 114.025C147.737 114.185 147.876 114.341 148.022 114.492C148.138 114.612 148.253 114.731 148.376 114.845C148.448 114.91 148.526 114.969 148.6 115.033C148.903 115.292 149.224 115.531 149.565 115.75C149.61 115.778 149.654 115.806 149.699 115.834C150.347 116.235 151.054 116.562 151.812 116.807C151.823 116.811 151.835 116.816 151.846 116.82L154.364 126.002L145.997 121.584L148.197 120.807C148.601 120.664 148.86 120.281 148.841 119.853C148.821 119.425 148.53 119.067 148.114 118.961L142.537 117.594L146.959 113.131C147.092 113.352 147.238 113.565 147.395 113.772V113.772ZM157.308 117.133L155.139 125.045L152.971 117.141C154.746 117.521 156.361 117.326 157.308 117.133V117.133ZM158.431 116.82C158.446 116.815 158.459 116.809 158.473 116.804C159.23 116.558 159.937 116.232 160.584 115.831C160.63 115.802 160.675 115.773 160.721 115.744C161.048 115.533 161.356 115.304 161.647 115.057C161.738 114.98 161.832 114.906 161.919 114.827C162.044 114.71 162.163 114.59 162.28 114.468C162.435 114.307 162.58 114.14 162.719 113.968C162.783 113.89 162.852 113.815 162.912 113.734C163.058 113.539 163.194 113.338 163.319 113.131L167.698 117.551L162.163 118.961C161.748 119.067 161.456 119.425 161.437 119.853C161.417 120.281 161.676 120.664 162.08 120.807L164.276 121.521L155.915 125.994L158.431 116.82ZM138.313 114.44L145.597 113.084L141.826 116.89C141.58 117.139 141.488 117.49 141.582 117.828C141.676 118.165 141.934 118.418 142.274 118.505L147.864 119.863L145.664 120.641C145.298 120.77 145.052 121.091 145.022 121.478C144.993 121.865 145.187 122.219 145.53 122.402L154.639 127.277V169.141C154.969 169.231 155.303 169.321 155.639 169.412V127.277L164.748 122.402C165.09 122.219 165.284 121.865 165.255 121.478C165.225 121.091 164.98 120.77 164.614 120.641L162.41 119.93L168.003 118.505C168.343 118.418 168.602 118.165 168.695 117.828C168.789 117.49 168.698 117.139 168.451 116.89V116.89L164.398 112.8H167.897C187.097 112.8 205.043 122.254 215.901 138.09L224.936 151.265H193.059L191.023 147.192C190.913 146.974 190.663 146.868 190.429 146.938C190.195 147.01 190.048 147.24 190.08 147.482L193.628 174C193.793 173.925 193.951 173.846 194.101 173.761C194.266 173.668 194.411 173.564 194.565 173.465L191.469 150.32L192.303 151.989C192.388 152.158 192.561 152.265 192.75 152.265H194.363C194.183 151.947 194.072 151.765 194.072 151.765H221.294C221.294 151.765 221.419 151.94 221.63 152.265H225.885C226.07 152.265 226.24 152.163 226.327 151.998C226.413 151.834 226.402 151.635 226.297 151.482L216.726 137.524C205.681 121.417 187.427 111.8 167.897 111.8H163.199C163.186 111.8 163.176 111.81 163.163 111.811C163.146 111.812 163.131 111.804 163.115 111.807C163.07 111.815 163.034 111.841 162.994 111.859C162.968 111.871 162.942 111.876 162.919 111.892C162.847 111.941 162.786 112.004 162.747 112.085C162.745 112.09 162.741 112.095 162.739 112.1C162.606 112.379 162.443 112.645 162.267 112.903C162.219 112.974 162.168 113.043 162.117 113.111C161.956 113.328 161.783 113.536 161.595 113.734C161.557 113.774 161.524 113.816 161.485 113.855C161.253 114.088 161.002 114.307 160.735 114.512C160.681 114.554 160.622 114.592 160.566 114.632C160.351 114.79 160.124 114.936 159.89 115.073C159.801 115.126 159.713 115.178 159.621 115.228C159.379 115.358 159.126 115.476 158.868 115.585C158.721 115.647 158.571 115.704 158.419 115.758C157.4 116.128 156.29 116.343 155.139 116.343C153.986 116.343 152.874 116.127 151.853 115.756C151.705 115.703 151.558 115.648 151.414 115.588C151.154 115.478 150.899 115.358 150.655 115.227C150.564 115.178 150.478 115.126 150.39 115.075C150.154 114.937 149.925 114.789 149.708 114.63C149.654 114.591 149.596 114.554 149.544 114.513C149.276 114.307 149.023 114.087 148.79 113.853C148.755 113.816 148.723 113.777 148.688 113.741C148.497 113.539 148.321 113.327 148.157 113.107C148.108 113.041 148.059 112.975 148.012 112.907C147.832 112.643 147.666 112.372 147.53 112.085C147.487 111.994 147.413 111.929 147.329 111.879C147.306 111.865 147.284 111.858 147.259 111.849C147.226 111.835 147.198 111.813 147.163 111.807C147.121 111.8 147.081 111.813 147.039 111.816C147.021 111.817 147.005 111.805 146.987 111.808L134.814 114.074H138.313V114.44Z" fill="black"/><path id="Fill 19" fill-rule="evenodd" clip-rule="evenodd" d="M69.875 134.532V134.486L69.625 134.511L69.875 134.532Z" fill="black"/><path id="Fill 20" fill-rule="evenodd" clip-rule="evenodd" d="M86.626 163.648H121.062V157.419H86.626V163.648ZM85.419 120.802H119.855V114.574H85.419V120.802ZM138.314 113.574H70.885C70.144 114.113 69.463 114.78 68.875 115.452V118.519L69.875 118.544V114.574H84.418V121.302C84.418 121.579 84.642 121.802 84.918 121.802H120.355C120.631 121.802 120.855 121.579 120.855 121.302V114.574H137.814V163.99H122.063V156.919C122.063 156.643 121.839 156.419 121.563 156.419H86.126C85.85 156.419 85.626 156.643 85.626 156.919V163.99H69.875V150.867C69.54 150.863 69.207 150.83 68.875 150.79V164.49C68.875 164.767 69.099 164.99 69.375 164.99H138.314C138.59 164.99 138.814 164.767 138.814 164.49V114.074C138.814 113.798 138.59 113.574 138.314 113.574V113.574Z" fill="black"/><path id="Fill 21" fill-rule="evenodd" clip-rule="evenodd" d="M69.8747 125.797V125.706L69.1487 125.748L69.8747 125.797Z" fill="black"/><path id="Fill 22" fill-rule="evenodd" clip-rule="evenodd" d="M69.8747 143.023V141.51L69.2547 141.479C69.1827 142.13 69.4327 142.627 69.8747 143.023" fill="black"/></g></g></g></g><g id="Facial Hair" transform="translate(193 148) scale(39 49)"><g id="Facial Hair/No Facial Hair" stroke="none" stroke-width="1" fill="none" fill-rule="evenodd" fill-opacity="0"/></g></g></g></g></svg>